<?xml version="1.0" encoding="UTF-8" standalone="no"?>
<svg
   xmlns:dc="http://purl.org/dc/elements/1.1/"
   xmlns:cc="http://creativecommons.org/ns#"
   xmlns:rdf="http://www.w3.org/1999/02/22-rdf-syntax-ns#"
   xmlns:svg="http://www.w3.org/2000/svg"
   xmlns="http://www.w3.org/2000/svg"
   xmlns:sodipodi="http://sodipodi.sourceforge.net/DTD/sodipodi-0.dtd"
   xmlns:inkscape="http://www.inkscape.org/namespaces/inkscape"
   width="284"
   height="284"
   id="svg4444"
   version="1.1"
   inkscape:version="0.91 r13725"
   sodipodi:docname="split_swup.svg">
  <metadata
     id="metadata4454">
    <rdf:RDF>
      <cc:Work
         rdf:about="">
        <dc:format>image/svg+xml</dc:format>
        <dc:type
           rdf:resource="http://purl.org/dc/dcmitype/StillImage" />
        <dc:title></dc:title>
      </cc:Work>
    </rdf:RDF>
  </metadata>
  <defs
     id="defs4452">
    <mask
       maskUnits="userSpaceOnUse"
       id="mask5538">
      <g
         id="g5540"
         inkscape:label="#g5348"
         style="stroke:#fdffff;stroke-opacity:1"
         transform="matrix(14.130435,0,0,14.130435,1100.7609,-4.2391305e-5)">
        <circle
           id="circle5542"
           r="124"
           cy="138"
           cx="138"
           style="fill:none;stroke:#fdffff;stroke-width:28;stroke-opacity:1" />
        <line
           id="line5544"
           y2="231"
           x2="231"
           y1="45"
           x1="45"
           style="stroke:#fdffff;stroke-width:22;stroke-opacity:1" />
      </g>
    </mask>
  </defs>
  <sodipodi:namedview
     pagecolor="#ffffff"
     bordercolor="#666666"
     borderopacity="1"
     objecttolerance="10"
     gridtolerance="10"
     guidetolerance="10"
     inkscape:pageopacity="0"
     inkscape:pageshadow="2"
     inkscape:window-width="1920"
     inkscape:window-height="1029"
     id="namedview4450"
     showgrid="false"
     inkscape:zoom="2.164874"
     inkscape:cx="37.459093"
     inkscape:cy="134.53968"
     inkscape:window-x="0"
     inkscape:window-y="0"
     inkscape:window-maximized="1"
     inkscape:current-layer="svg4444"
     fit-margin-top="0"
     fit-margin-left="0"
     fit-margin-right="0"
     fit-margin-bottom="0" />
  <g
     id="g6966">
    <path
       id="path6964"
       d="M 170.51367 169.49805 C 151.62256 174.72477 129.25952 170.34334 115.2168 156.49805 L 113.125 154.77148 C 111.42966 156.67575 109.73129 158.57388 108.03711 160.48047 C 104.8209 157.44378 99.822249 156.5517 98.283203 161.74414 C 91.962594 161.30734 88.252769 164.81063 86.597656 171.37305 C 74.839318 179.16345 62.110205 185.9978 54.792969 198.23047 C 50.611857 211.17036 58.880977 216.79863 68.238281 215.72656 C 83.575731 209.35449 88.316761 195.58366 96.525391 184.22266 C 102.3268 182.37449 107.2419 179.89079 108.14258 174.60938 L 109.37305 175.75195 C 135.13003 199.64662 166.12711 201.13889 190.24219 189.22461 L 170.51367 169.49805 z "
       style="fill:#cc1009;fill-rule:evenodd" />
    <path
       id="path6962"
       d="M 85.3125 84.294922 L 67.507812 101.25195 L 90.615234 124.35938 L 107.9375 106.91992 L 85.3125 84.294922 z "
       style="fill:#cc1009;fill-rule:evenodd" />
  </g>
  <path
     style="color:#000000;font-style:normal;font-variant:normal;font-weight:normal;font-stretch:normal;font-size:medium;line-height:normal;font-family:sans-serif;text-indent:0;text-align:start;text-decoration:none;text-decoration-line:none;text-decoration-style:solid;text-decoration-color:#000000;letter-spacing:normal;word-spacing:normal;text-transform:none;direction:ltr;block-progression:tb;writing-mode:lr-tb;baseline-shift:baseline;text-anchor:start;white-space:normal;clip-rule:nonzero;display:inline;overflow:visible;visibility:visible;opacity:1;isolation:auto;mix-blend-mode:normal;color-interpolation:sRGB;color-interpolation-filters:linearRGB;solid-color:#000000;solid-opacity:1;fill:#000000;fill-opacity:1;fill-rule:nonzero;stroke:none;stroke-width:31.48039818;stroke-linecap:butt;stroke-linejoin:miter;stroke-miterlimit:4;stroke-dasharray:none;stroke-dashoffset:0;stroke-opacity:1;color-rendering:auto;image-rendering:auto;shape-rendering:auto;text-rendering:auto;enable-background:accumulate"
     d="M 84.548828 83.533203 L 195.84766 194.83203 L 205.13867 185.54102 L 160.61914 141.02148 L 182.87891 118.76172 L 227.39844 163.28125 L 249.66016 141.02148 L 182.87891 74.242188 L 138.35938 118.76172 L 116.09961 96.501953 L 160.61914 51.982422 L 138.35938 29.720703 L 84.548828 83.533203 z "
     id="path4505" />
</svg>
