<?xml version="1.0" encoding="UTF-8" standalone="no"?>
<svg
   xmlns:dc="http://purl.org/dc/elements/1.1/"
   xmlns:cc="http://creativecommons.org/ns#"
   xmlns:rdf="http://www.w3.org/1999/02/22-rdf-syntax-ns#"
   xmlns:svg="http://www.w3.org/2000/svg"
   xmlns="http://www.w3.org/2000/svg"
   version="1.1"
   id="svg4444"
   height="284"
   width="284">
  <metadata
     id="metadata4454">
    <rdf:RDF>
      <cc:Work
         rdf:about="">
        <dc:format>image/svg+xml</dc:format>
        <dc:type
           rdf:resource="http://purl.org/dc/dcmitype/StillImage" />
        <dc:title />
      </cc:Work>
    </rdf:RDF>
  </metadata>
  <defs
     id="defs4452">
    <mask
       id="mask5538"
       maskUnits="userSpaceOnUse">
      <g
         transform="matrix(14.130435,0,0,14.130435,1100.7609,-4.2391305e-5)"
         style="stroke:#fdffff;stroke-opacity:1"
         id="g5540">
        <circle
           style="fill:none;stroke:#fdffff;stroke-width:28;stroke-opacity:1"
           cx="138"
           cy="138"
           r="124"
           id="circle5542" />
        <line
           style="stroke:#fdffff;stroke-width:22;stroke-opacity:1"
           x1="45"
           y1="45"
           x2="231"
           y2="231"
           id="line5544" />
      </g>
    </mask>
  </defs>
  <path
     id="path6940"
     d="M 84.548828 83.533203 L 71.580078 96.501953 L 116.09961 141.02148 L 93.839844 163.28125 L 49.318359 118.76172 L 27.058594 141.02148 L 93.839844 207.80078 L 138.35938 163.28125 L 160.62109 185.54297 L 116.09961 230.0625 L 138.35938 252.32227 L 195.84766 194.83203 L 84.548828 83.533203 z "
     style="color:#000000;font-style:normal;font-variant:normal;font-weight:normal;font-stretch:normal;font-size:medium;line-height:normal;font-family:sans-serif;text-indent:0;text-align:start;text-decoration:none;text-decoration-line:none;text-decoration-style:solid;text-decoration-color:#000000;letter-spacing:normal;word-spacing:normal;text-transform:none;direction:ltr;block-progression:tb;writing-mode:lr-tb;baseline-shift:baseline;text-anchor:start;white-space:normal;clip-rule:nonzero;display:inline;overflow:visible;visibility:visible;opacity:1;isolation:auto;mix-blend-mode:normal;color-interpolation:sRGB;color-interpolation-filters:linearRGB;solid-color:#000000;solid-opacity:1;fill:#000000;fill-opacity:1;fill-rule:nonzero;stroke:none;stroke-width:31.48039818;stroke-linecap:butt;stroke-linejoin:miter;stroke-miterlimit:4;stroke-dasharray:none;stroke-dashoffset:0;stroke-opacity:1;color-rendering:auto;image-rendering:auto;shape-rendering:auto;text-rendering:auto;enable-background:accumulate" />
  <g
     id="g6966">
    <path
       style="fill:#cc1009;fill-rule:evenodd"
       d="M 170.51367 169.49805 C 151.62256 174.72477 129.25952 170.34334 115.2168 156.49805 L 113.125 154.77148 C 111.42966 156.67575 109.73129 158.57388 108.03711 160.48047 C 104.8209 157.44378 99.822249 156.5517 98.283203 161.74414 C 91.962594 161.30734 88.252769 164.81063 86.597656 171.37305 C 74.839318 179.16345 62.110205 185.9978 54.792969 198.23047 C 50.611857 211.17036 58.880977 216.79863 68.238281 215.72656 C 83.575731 209.35449 88.316761 195.58366 96.525391 184.22266 C 102.3268 182.37449 107.2419 179.89079 108.14258 174.60938 L 109.37305 175.75195 C 135.13003 199.64662 166.12711 201.13889 190.24219 189.22461 L 170.51367 169.49805 z "
       id="path6964" />
    <path
       style="fill:#cc1009;fill-rule:evenodd"
       d="M 85.3125 84.294922 L 67.507812 101.25195 L 90.615234 124.35938 L 107.9375 106.91992 L 85.3125 84.294922 z "
       id="path6962" />
  </g>
  <path
     id="hammer_head"
     d="M 85.3125 84.294922 L 107.9375 106.91992 L 110.56641 104.27344 C 133.66413 127.71674 153.58473 147.93654 173.91992 168.57812 C 172.81389 168.96209 171.64761 169.18431 170.51367 169.49805 L 190.24219 189.22461 C 191.15265 188.77479 192.12369 188.44892 193.01367 187.96094 C 200.99109 196.05821 208.74729 203.93025 217.29492 212.60547 C 227.69662 223.39065 245.8109 208.72381 234.21094 196.27148 C 226.08456 188.35182 218.54549 180.95074 211.2168 173.73242 C 242.02193 140.37029 241.79902 76.613616 151.96875 24.03125 C 212.33475 91.098671 212.89896 134.65095 193.33984 156.05859 C 171.98532 134.90038 151.45226 114.4154 125.64062 89.101562 L 150.16211 64.435547 L 110.83398 59.986328 L 85.3125 84.294922 z "
     style="fill:#cc1009;fill-rule:evenodd" />
  <path
     id="path4505"
     d="M 84.548828 83.533203 L 195.84766 194.83203 L 205.13867 185.54102 L 160.61914 141.02148 L 182.87891 118.76172 L 227.39844 163.28125 L 249.66016 141.02148 L 182.87891 74.242188 L 138.35938 118.76172 L 116.09961 96.501953 L 160.61914 51.982422 L 138.35938 29.720703 L 84.548828 83.533203 z "
     style="color:#000000;font-style:normal;font-variant:normal;font-weight:normal;font-stretch:normal;font-size:medium;line-height:normal;font-family:sans-serif;text-indent:0;text-align:start;text-decoration:none;text-decoration-line:none;text-decoration-style:solid;text-decoration-color:#000000;letter-spacing:normal;word-spacing:normal;text-transform:none;direction:ltr;block-progression:tb;writing-mode:lr-tb;baseline-shift:baseline;text-anchor:start;white-space:normal;clip-rule:nonzero;display:inline;overflow:visible;visibility:visible;opacity:1;isolation:auto;mix-blend-mode:normal;color-interpolation:sRGB;color-interpolation-filters:linearRGB;solid-color:#000000;solid-opacity:1;fill:#000000;fill-opacity:1;fill-rule:nonzero;stroke:none;stroke-width:31.48039818;stroke-linecap:butt;stroke-linejoin:miter;stroke-miterlimit:4;stroke-dasharray:none;stroke-dashoffset:0;stroke-opacity:1;color-rendering:auto;image-rendering:auto;shape-rendering:auto;text-rendering:auto;enable-background:accumulate" />
</svg>
