<?xml version="1.0" encoding="UTF-8" standalone="no"?>
<svg
   xmlns:dc="http://purl.org/dc/elements/1.1/"
   xmlns:cc="http://creativecommons.org/ns#"
   xmlns:rdf="http://www.w3.org/1999/02/22-rdf-syntax-ns#"
   xmlns:svg="http://www.w3.org/2000/svg"
   xmlns="http://www.w3.org/2000/svg"
   viewBox="0 0 320 312"
   height="312"
   width="320"
   version="1.1"
   id="svg4190">
  <metadata
     id="metadata4196">
    <rdf:RDF>
      <cc:Work
         rdf:about="">
        <dc:format>image/svg+xml</dc:format>
        <dc:type
           rdf:resource="http://purl.org/dc/dcmitype/StillImage" />
        <dc:title></dc:title>
      </cc:Work>
    </rdf:RDF>
  </metadata>
  <defs
     id="defs4194" />
  <g
     id="g4230" />
  <path
     id="rect4483"
     d="M 54.378906 4.1914062 C 54.224055 4.2003962 54.068446 4.2319933 53.914062 4.2851562 C 53.759681 4.3383192 53.606095 4.4121167 53.451172 4.5078125 C 53.338894 4.5771665 53.19808 4.7056508 53.033203 4.8847656 C 52.70345 5.2429952 52.275843 5.8079989 51.785156 6.5273438 C 51.539813 6.887016 51.279071 7.284375 51.005859 7.7148438 C 50.459436 8.5757812 49.866256 9.5666227 49.257812 10.632812 C 48.649377 11.699008 48.026376 12.840274 47.421875 14.007812 C 46.913185 14.990305 46.462904 15.868995 46.064453 16.667969 C 45.666002 17.466943 45.319171 18.187031 45.017578 18.851562 C 44.715985 19.516095 44.458351 20.125914 44.240234 20.705078 C 43.804002 21.863407 43.522453 22.900404 43.339844 24.011719 C 43.065929 25.67869 43.016054 27.512344 43.011719 30.177734 C 43.010519 30.893358 43.004814 31.55696 42.990234 32.171875 C 42.975654 32.78679 42.953328 33.354151 42.923828 33.876953 C 42.805856 35.96816 42.561432 37.357142 42.144531 38.318359 C 42.040306 38.558664 41.925502 38.771722 41.798828 38.962891 C 41.672154 39.154059 41.533442 39.322028 41.382812 39.472656 C 41.207715 39.647753 41.047824 39.802991 40.896484 39.935547 C 40.593805 40.200659 40.328751 40.38032 40.068359 40.478516 C 39.938164 40.527616 39.810544 40.556273 39.677734 40.564453 C 39.412116 40.580813 39.131549 40.515153 38.802734 40.371094 C 38.638327 40.299064 38.46097 40.207023 38.267578 40.095703 C 38.074187 39.984383 37.863979 39.855149 37.632812 39.705078 C 37.468868 39.598647 37.298453 39.466469 37.121094 39.3125 C 36.766376 39.004563 36.387036 38.605024 35.984375 38.117188 C 35.380383 37.38543 34.725604 36.457479 34.035156 35.359375 C 33.574858 34.627306 33.098579 33.819216 32.609375 32.941406 C 31.630966 31.185786 30.603032 29.153085 29.554688 26.896484 C 28.506342 24.639883 27.43822 22.159989 26.380859 19.511719 C 25.503732 17.31486 24.541844 15.214392 23.699219 13.599609 C 23.06725 12.388522 22.50219 11.451157 22.089844 10.951172 C 21.952395 10.78451 21.830803 10.664853 21.730469 10.601562 C 21.58803 10.511712 21.44644 10.432933 21.304688 10.365234 C 21.162934 10.297534 21.021725 10.241264 20.880859 10.195312 C 20.739993 10.149363 20.598764 10.114452 20.458984 10.089844 C 19.760086 9.966814 19.076669 10.107844 18.419922 10.488281 C 18.157223 10.640457 17.899641 10.831495 17.646484 11.058594 C 16.633859 11.966988 15.704193 13.461006 14.908203 15.439453 C 14.510208 16.428677 14.144962 17.539691 13.820312 18.757812 C 13.657993 19.366874 13.50487 20.002605 13.363281 20.664062 C 12.938514 22.648438 12.611713 24.861736 12.402344 27.259766 C 12.332554 28.059109 12.275081 28.877928 12.232422 29.716797 C 12.132712 31.677511 12.092444 33.387882 12.140625 34.927734 C 12.156685 35.441019 12.183913 35.935313 12.220703 36.414062 C 12.331079 37.850316 12.539369 39.145351 12.875 40.380859 C 12.986877 40.792695 13.112703 41.197849 13.253906 41.599609 C 13.677517 42.80489 14.236661 43.978469 14.962891 45.203125 C 15.204967 45.611344 15.466095 46.024665 15.746094 46.447266 C 16.866089 48.137667 18.298617 49.967728 20.111328 52.132812 C 21.180786 53.410165 22.153696 54.779749 22.859375 55.958984 C 23.035795 56.253793 23.19556 56.538248 23.335938 56.804688 C 23.757068 57.604005 24.002969 58.254796 24.003906 58.638672 C 24.006406 59.662343 22.375696 63.723965 20.378906 67.664062 C 19.954629 68.501255 19.577922 69.252966 19.244141 69.951172 C 18.910359 70.649378 18.618189 71.293551 18.361328 71.914062 C 17.847605 73.155102 17.475002 74.301532 17.1875 75.599609 C 16.612496 78.195764 16.380384 81.397454 16.058594 87.164062 C 15.91195 89.791974 15.772229 91.924181 15.609375 93.710938 C 15.446521 95.497692 15.261719 96.939496 15.025391 98.1875 C 14.907226 98.811502 14.776177 99.385626 14.628906 99.931641 C 14.481636 100.47766 14.3183 100.99417 14.134766 101.5 C 13.951231 102.00583 13.746488 102.50242 13.519531 103.00586 C 13.292575 103.5093 13.043162 104.01974 12.765625 104.55859 C 12.399734 105.269 12.03548 106.08247 11.677734 106.97656 C 11.319988 107.87065 10.967767 108.84575 10.628906 109.87695 C 10.290046 110.90816 9.9635315 111.99543 9.6542969 113.11719 C 9.3450622 114.23895 9.0540252 115.3948 8.7851562 116.56055 C 7.9785515 120.05778 7.3769361 123.64826 7.1269531 126.70312 C 7.0852891 127.21229 7.0547061 127.70711 7.0332031 128.18359 C 7.0116999 128.66008 7 129.11864 7 129.55664 C 7 130.03924 7.0087897 130.48052 7.0273438 130.88867 C 7.0458928 131.29682 7.0743155 131.67145 7.1171875 132.01953 C 7.3744158 134.10801 8.1221799 135.24469 9.9824219 136.98242 C 10.447909 137.41725 11.018844 137.84545 11.675781 138.25977 C 12.332718 138.67408 13.074294 139.07439 13.876953 139.45508 C 14.679612 139.83577 15.544612 140.19728 16.447266 140.53125 C 17.34992 140.86522 18.291125 141.17116 19.248047 141.44531 C 20.68343 141.85654 22.153153 142.1938 23.582031 142.43359 C 25.963495 142.83324 28.229679 142.96494 30.021484 142.72461 C 30.375663 142.67711 30.738548 142.61604 31.109375 142.54297 C 31.851029 142.39683 32.623991 142.19999 33.417969 141.95898 C 35.402912 141.35646 37.52117 140.47261 39.625 139.38477 C 40.466532 138.94963 41.30556 138.4819 42.132812 137.98633 C 43.787318 136.99518 45.393744 135.89454 46.876953 134.7207 C 47.618558 134.13378 48.329763 133.52799 49 132.91016 C 52.040957 130.10696 54.040219 128.29838 55.511719 127.18945 C 56.247469 126.63499 56.849983 126.25551 57.386719 126.01367 C 57.565631 125.93307 57.73795 125.86776 57.904297 125.81641 C 58.236992 125.71369 58.548294 125.66814 58.859375 125.66602 C 59.014915 125.66502 59.170827 125.67306 59.328125 125.69336 C 59.485423 125.71336 59.644764 125.745 59.808594 125.7832 C 60.136254 125.8598 60.482803 125.9702 60.865234 126.10352 C 61.233454 126.23188 61.617667 126.39945 62.017578 126.60352 C 62.417489 126.80758 62.833095 127.04637 63.259766 127.32031 C 63.686436 127.59426 64.123768 127.90223 64.572266 128.24023 C 66.366257 129.59226 68.315754 131.43403 70.261719 133.57812 C 70.74821 134.11416 71.23509 134.66926 71.71875 135.24023 C 72.20241 135.81121 72.682306 136.39795 73.158203 136.99805 C 73.6341 137.59815 74.105156 138.21058 74.568359 138.83398 C 77.347577 142.57442 79.853867 146.68344 81.554688 150.5293 L 83.974609 156 L 187.4082 156 L 290.8418 156 L 291.41211 153.25 C 291.61898 152.25264 291.81958 151.24179 292.01367 150.2207 C 292.20776 149.19961 292.3956 148.16734 292.57617 147.13086 C 292.93732 145.05789 293.26957 142.96342 293.57227 140.87891 C 293.87496 138.79439 294.14641 136.72077 294.38477 134.69141 C 295.09984 128.6033 295.51276 122.91272 295.54297 118.52148 C 295.54797 117.78961 295.54199 117.09501 295.52539 116.43945 C 295.50879 115.7839 295.48226 115.16856 295.44336 114.59766 C 295.36556 113.45584 295.24183 112.49146 295.07031 111.73828 C 294.8959 110.97239 294.68866 110.19005 294.44922 109.39648 C 294.20977 108.60292 293.93923 107.79722 293.64062 106.98438 C 293.04348 105.35867 292.33342 103.70331 291.53516 102.05078 C 291.13603 101.22452 290.71399 100.39851 290.27344 99.578125 C 289.83288 98.75774 289.37256 97.942839 288.89648 97.136719 C 287.94433 95.524479 286.92798 93.950164 285.86914 92.445312 C 284.28088 90.188036 282.59979 88.088643 280.9043 86.261719 C 280.33913 85.652744 279.77231 85.073679 279.20703 84.529297 C 277.5112 82.896151 275.82693 81.572702 274.23633 80.671875 C 273.97123 80.521737 273.70881 80.383938 273.44922 80.257812 C 273.18962 80.131687 272.93304 80.017081 272.67969 79.916016 C 270.93055 79.218262 266.65161 77.365838 263.16992 75.798828 C 261.87769 75.21723 260.68834 74.697848 259.58203 74.236328 C 258.47573 73.774809 257.45274 73.370344 256.49219 73.021484 C 255.53164 72.672625 254.63427 72.378383 253.7793 72.134766 C 252.92432 71.891148 252.11184 71.698529 251.32227 71.552734 C 249.34832 71.188249 247.5144 71.117435 245.50977 71.283203 C 245.10884 71.316353 244.70238 71.358573 244.28516 71.410156 C 243.45072 71.51332 242.57819 71.652906 241.64844 71.824219 C 240.50557 72.0348 239.32299 72.273317 238.08008 72.544922 C 236.83717 72.816527 235.53476 73.121963 234.15039 73.466797 C 231.38164 74.156465 228.28821 75.00473 224.70508 76.060547 C 221.12195 77.116364 217.04919 78.37883 212.32031 79.898438 C 209.95587 80.658241 207.4259 81.482895 204.71289 82.376953 C 201.99988 83.271012 199.103 84.234872 196 85.275391 L 174.5 92.484375 L 158 92.492188 C 155.56165 92.493285 153.41682 92.489983 151.50391 92.460938 C 150.54745 92.446398 149.64866 92.426664 148.80078 92.396484 C 145.40928 92.275744 142.82612 92.006875 140.56445 91.419922 C 139.99904 91.273184 139.45269 91.10734 138.91992 90.917969 C 137.85439 90.539226 136.84051 90.069944 135.81445 89.488281 C 135.30143 89.19745 134.7857 88.878955 134.25977 88.529297 C 133.73383 88.179639 133.19661 87.798648 132.64258 87.384766 C 132.08855 86.970883 131.51724 86.522569 130.91992 86.039062 C 130.32261 85.55556 129.69875 85.037042 129.04297 84.478516 C 127.73141 83.361463 126.2889 82.088194 124.65234 80.638672 C 121.84183 78.14935 119.30179 75.921972 116.97852 73.917969 C 114.65524 71.913965 112.54898 70.13375 110.59961 68.542969 C 105.72619 64.566015 101.84251 61.766844 98.066406 59.583984 C 96.555965 58.710841 95.062505 57.936865 93.529297 57.224609 C 89.696277 55.44397 85.615308 54.053868 80.400391 52.490234 C 79.176507 52.123267 77.947984 51.743875 76.775391 51.373047 C 75.602798 51.002219 74.486875 50.639024 73.486328 50.304688 C 72.485782 49.970349 71.600323 49.665699 70.892578 49.408203 C 70.184833 49.150707 69.655515 48.941084 69.361328 48.800781 C 69.154246 48.702021 68.955112 48.596244 68.765625 48.482422 C 67.439213 47.685667 66.541015 46.50781 66.023438 44.796875 C 65.875557 44.308037 65.758622 43.776912 65.671875 43.197266 C 65.628505 42.907442 65.592955 42.604889 65.564453 42.291016 C 65.421962 40.721648 65.462883 38.845471 65.671875 36.607422 C 65.738675 35.892066 65.791077 35.237101 65.826172 34.617188 C 66.036741 30.897706 65.60506 28.493439 63.660156 22.574219 C 63.336006 21.587682 62.968834 20.503015 62.556641 19.298828 C 62.021224 17.734654 61.517942 16.306514 61.039062 15.007812 C 60.560184 13.709112 60.106222 12.540519 59.675781 11.494141 C 59.245331 10.447851 58.837364 9.5240038 58.447266 8.7167969 C 58.057167 7.90959 57.685979 7.2179046 57.328125 6.6367188 C 57.149198 6.3461258 56.973165 6.0842097 56.800781 5.8476562 C 55.938862 4.6648891 55.153163 4.1464734 54.378906 4.1914062 z M 110.02148 107.49023 L 114.74414 122.01953 L 130.02344 122.01953 L 117.66211 131.00195 L 122.38281 145.53125 L 110.02148 136.55273 L 97.662109 145.53125 L 102.38281 131.00195 L 90.021484 122.01953 L 105.30078 122.01953 L 110.02148 107.49023 z M 161.92188 107.49023 L 166.64453 122.01953 L 181.92188 122.01953 L 169.5625 131.00195 L 174.2832 145.53125 L 161.92188 136.55273 L 149.56055 145.53125 L 154.28125 131.00195 L 141.92188 122.01953 L 157.20117 122.01953 L 161.92188 107.49023 z M 214.02148 107.49023 L 218.74414 122.01953 L 234.02148 122.01953 L 221.66211 131.00195 L 226.38281 145.53125 L 214.02148 136.55273 L 201.66211 145.53125 L 206.38281 131.00195 L 194.02148 122.01953 L 209.30078 122.01953 L 214.02148 107.49023 z M 264.69922 107.49023 L 269.42188 122.01953 L 284.70117 122.01953 L 272.33984 131.00195 L 277.06055 145.53125 L 264.69922 136.55273 L 252.33984 145.53125 L 257.06055 131.00195 L 244.69922 122.01953 L 259.97852 122.01953 L 264.69922 107.49023 z "
     style="fill:#031bbb;fill-opacity:1;stroke:none;stroke-width:36;stroke-linejoin:miter;stroke-miterlimit:4;stroke-dasharray:none;stroke-opacity:1" />
  <rect
     y="103.75385"
     x="137.16924"
     height="3.7846153"
     width="0.18461539"
     id="rect4487"
     style="fill:#031bbb;fill-opacity:1;stroke:none;stroke-width:36;stroke-linejoin:miter;stroke-miterlimit:4;stroke-dasharray:none;stroke-opacity:1" />
  <path
     id="path4160"
     d="m 252.14231,306.62593 c -3.17552,-0.62247 -6.89113,-3.00864 -7.94329,-5.10118 -1.38102,-2.74658 -0.46427,-4.26288 7.4814,-12.3742 l 7.20626,-7.35649 0.54097,-6.17094 c 0.64994,-7.41383 0.66127,-7.4682 2.99746,-14.37781 l 1.85377,-5.4828 -0.36576,-16.41264 -0.36575,-16.41263 -5.4161,-11.00135 c -2.97886,-6.05075 -6.27352,-12.00001 -7.32147,-13.22058 -2.24678,-2.61689 -3.96178,-2.90447 -5.28427,-0.88609 -0.80016,1.22119 -0.80633,1.56104 -0.0734,4.04683 0.44005,1.49253 1.76762,5.22455 2.95016,8.29338 2.40659,6.24539 2.6239,8.51584 1.11365,11.6356 -0.93716,1.9359 -7.6856,8.90201 -17.89228,18.46937 l -3.52466,3.30389 0,8.76064 c 0,10.0403 0.0934,9.77993 -5.75833,16.04787 -3.86097,4.13555 -7.1049,8.69688 -10.70099,15.04679 -3.44851,6.08931 -6.39257,10.38007 -7.66919,11.17734 -1.55505,0.97114 -8.77131,1.74797 -12.94564,1.39359 -10.52357,-0.89339 -13.87737,-4.94558 -9.7528,-11.78368 0.95276,-1.57957 5.98577,-8.65131 11.18446,-15.71499 14.1524,-19.22944 16.84433,-23.65794 16.84433,-27.71056 0,-0.8363 0.82242,-3.65006 1.8276,-6.2528 1.10192,-2.85324 1.8276,-5.65115 1.8276,-7.04647 0,-3.07199 -2.22666,-8.82393 -7.86434,-20.31532 -5.75092,-11.72219 -7.03629,-13.56921 -10.00598,-14.37823 -2.77994,-0.75733 -9.26963,-0.34987 -16.63492,1.04445 -7.5788,1.43474 -11.45535,1.91198 -25.76077,3.17139 -6.86804,0.60465 -12.93118,1.33689 -13.47364,1.62721 -2.15886,1.15538 -8.32302,12.64918 -10.83417,20.20157 -2.38836,7.18308 -3.26881,12.28147 -3.30907,19.1616 -0.034,5.80981 0.10154,6.70328 1.86134,12.27102 1.0439,3.30273 2.37479,7.65731 2.95753,9.67684 1.17775,4.08155 2.34804,5.46335 7.61028,8.98583 4.13726,2.76942 5.16384,3.95429 4.7735,5.50954 -0.69975,2.78804 -17.86362,21.77885 -19.68369,21.77885 -0.45771,0 -1.98895,-0.82241 -3.40276,-1.82759 -2.81221,-1.99941 -5.11383,-2.36797 -5.70659,-0.9138 -0.20487,0.50259 -0.55812,2.52588 -0.785,4.49622 -0.23683,2.05671 -0.75878,3.9287 -1.22557,4.39548 -1.03195,1.03195 -12.556405,1.57883 -23.659028,1.12271 -7.137413,-0.29322 -7.719293,-0.39464 -8.615824,-1.50181 -0.528805,-0.65305 -0.961464,-1.83905 -0.961464,-2.63556 0,-2.76705 4.286293,-10.27556 12.968216,-22.71706 1.631753,-2.33837 2.311328,-3.9277 2.679272,-6.26606 0.271142,-1.72316 0.87099,-5.54449 1.332995,-8.49183 0.462005,-2.94735 1.471194,-7.05944 2.242643,-9.138 1.390789,-3.74727 1.401812,-3.88496 1.305171,-16.30267 -0.09689,-12.44914 -0.788701,-23.21422 -1.812642,-28.20587 -0.294562,-1.43597 -2.392683,-9.77765 -4.662491,-18.53708 -5.386893,-20.78857 -6.289632,-24.95447 -5.516429,-25.45682 0.330693,-0.21486 45.765441,-0.45348 100.966091,-0.53027 l 100.36485,-0.13963 0.57354,2.22831 c 1.24516,4.83763 2.2152,7.19889 4.8361,11.77193 5.31979,9.28215 12.77127,18.37407 15.9739,19.49051 4.2582,1.48442 5.54667,14.08038 2.21155,21.61996 -1.46185,3.30476 -2.35962,3.02036 -3.71968,-1.17837 -0.62795,-1.93856 -1.89822,-4.82335 -2.82282,-6.41063 -2.16154,-3.71076 -2.90606,-5.89035 -2.9203,-8.54917 -0.0168,-3.13383 -1.45022,-5.77466 -5.83896,-10.75713 -5.23877,-5.9475 -9.0216,-9.39908 -10.3011,-9.39908 -0.65778,0 -1.37917,0.63016 -1.92111,1.67816 -0.72543,1.40282 -0.81771,2.7094 -0.56245,7.96311 0.3361,6.91755 1.63454,13.64388 5.24521,27.1718 4.2953,16.09296 4.3341,20.32739 0.23707,25.86904 -1.44003,1.94778 -1.91922,6.3877 -2.46144,22.80631 l -0.48659,14.73422 -4.79525,7.98022 c -6.13432,10.20872 -7.94512,12.55978 -10.90105,14.15348 -3.93316,2.12059 -12.54688,3.00141 -18.30783,1.87213 z"
     style="fill:#ff0000;fill-opacity:1;stroke:none;stroke-width:36;stroke-linejoin:miter;stroke-miterlimit:4;stroke-dasharray:none;stroke-opacity:1" />
</svg>
