<?xml version="1.0" encoding="utf-8"?>
<!-- Generator: Adobe Illustrator 16.0.2, SVG Export Plug-In . SVG Version: 6.00 Build 0)  -->
<!DOCTYPE svg PUBLIC "-//W3C//DTD SVG 1.1//EN" "http://www.w3.org/Graphics/SVG/1.1/DTD/svg11.dtd">
<svg version="1.1" id="Layer_1" xmlns="http://www.w3.org/2000/svg" xmlns:xlink="http://www.w3.org/1999/xlink" x="0px" y="0px"
	 width="414px" height="414px" viewBox="0 0 414 414" enable-background="new 0 0 414 414" xml:space="preserve">
<g id="g3019" transform="matrix(0.9995682,0,0,0.9995682,-30.67104,52.216605)">
	<path id="hammer_head" inkscape:connector-curvature="0" sodipodi:nodetypes="ccccccccc" fill="#CC1009" d="M162.423,25.163
		L69.1,114.051l49.771,49.771l42.976-43.265c83.815,85.069,148.96,151.207,229.89,233.345c22.405,23.231,61.421-8.36,36.435-35.182
		c-85.505-83.33-144.773-143.477-233.856-230.842l52.818-53.129L162.423,25.163z"/>
	<g id="g3852" transform="matrix(0.83334944,0,0,0.83334944,89.122595,-182.30111)">
		<path id="sickle_handle" inkscape:connector-curvature="0" sodipodi:nodetypes="cccccccccccc" fill="#CC1009" d="M84.184,548.176
			C284.533,734.039,609.2,398.896,194.279,156.021l0,0c308.774,343.052,12.344,448.213-94.99,342.388l-5.409-4.463
			c-4.382,4.922-8.773,9.831-13.152,14.759c-8.313-7.849-21.231-10.155-25.209,3.266c-16.337-1.129-25.926,7.924-30.204,24.886
			c-30.392,20.136-63.295,37.803-82.208,69.421c-10.807,33.446,10.568,47.994,34.754,45.223
			c39.643-16.47,51.896-52.068,73.113-81.433c14.995-4.777,27.701-11.196,30.029-24.847"/>
	</g>
</g>
</svg>
