<?xml version="1.0" encoding="UTF-8" standalone="no"?>
<!-- Created with Inkscape (http://www.inkscape.org/) -->

<svg
   xmlns:dc="http://purl.org/dc/elements/1.1/"
   xmlns:cc="http://creativecommons.org/ns#"
   xmlns:rdf="http://www.w3.org/1999/02/22-rdf-syntax-ns#"
   xmlns:svg="http://www.w3.org/2000/svg"
   xmlns="http://www.w3.org/2000/svg"
   xmlns:sodipodi="http://sodipodi.sourceforge.net/DTD/sodipodi-0.dtd"
   xmlns:inkscape="http://www.inkscape.org/namespaces/inkscape"
   version="1.0"
   width="600"
   height="521"
   id="svg2"
   inkscape:version="0.91 r13725"
   sodipodi:docname="Republicanlogo2.svg">
  <metadata
     id="metadata12">
    <rdf:RDF>
      <cc:Work
         rdf:about="">
        <dc:format>image/svg+xml</dc:format>
        <dc:type
           rdf:resource="http://purl.org/dc/dcmitype/StillImage" />
        <dc:title></dc:title>
      </cc:Work>
    </rdf:RDF>
  </metadata>
  <sodipodi:namedview
     pagecolor="#ffffff"
     bordercolor="#666666"
     borderopacity="1"
     objecttolerance="10"
     gridtolerance="10"
     guidetolerance="10"
     inkscape:pageopacity="0"
     inkscape:pageshadow="2"
     inkscape:window-width="1920"
     inkscape:window-height="1029"
     id="namedview10"
     showgrid="false"
     inkscape:zoom="0.44333333"
     inkscape:cx="304.51128"
     inkscape:cy="260.5"
     inkscape:window-x="0"
     inkscape:window-y="0"
     inkscape:window-maximized="1"
     inkscape:current-layer="svg2" />
  <defs
     id="defs4" />
  <path
     inkscape:connector-curvature="0"
     id="back"
     style="fill:#1404bd;fill-opacity:1;fill-rule:evenodd;stroke:none"
     d="m 25.556904,181.24351 c 0.0025,36.46432 1.250696,39.40115 22.55021,39.33759 21.069035,-0.0652 436.918056,-0.50485 437.223506,-0.50111 16.27562,0.20226 20.62292,-3.75397 20.54574,-31.5703 C 505.47315,42.934967 413.17215,9.9284822 264.08801,10.864154 136.30486,11.666139 25.547142,40.413678 25.556904,181.24351 Z" />
  <path
     inkscape:connector-curvature="0"
     id="star1"
     style="fill:#ffffff;fill-opacity:1;fill-rule:evenodd;stroke:none"
     d="M 127.2834,184.50076 112.83563,141.03723 67.233145,140.87169 104.1048,113.70006 90.170302,70.278369 l 37.235718,26.670542 36.99049,-26.670544 -13.85873,43.654923 36.79589,26.93839 -45.80088,0.30969 -14.24939,43.31939 z" />
  <path
     inkscape:connector-curvature="0"
     id="star2"
     style="fill:#ffffff;fill-opacity:1;fill-rule:evenodd;stroke:none"
     d="m 267.09452,183.98365 -14.44777,-43.46353 -45.60249,-0.16554 36.87166,-27.17163 -13.9345,-43.421691 37.23572,26.670542 36.99049,-26.670544 -13.85873,43.654923 36.79589,26.93839 -45.80088,0.30969 -14.24939,43.31939 z" />
  <path
     inkscape:connector-curvature="0"
     id="star3"
     style="fill:#ffffff;fill-opacity:1;fill-rule:evenodd;stroke:none"
     d="m 406.65552,184.48476 -14.44777,-43.46353 -45.60249,-0.16554 36.87166,-27.17163 -13.9345,-43.421691 37.23572,26.670542 36.99049,-26.670544 -13.85873,43.654923 36.79589,26.93839 -45.80088,0.30969 -14.24939,43.31939 z" />
  <path
     inkscape:connector-curvature="0"
     id="trunk"
     style="fill:#ff0000;fill-opacity:1;fill-rule:evenodd;stroke:none"
     d="m 44.599303,235.11346 c -13.17481,-0.0755 -17.789609,3.50781 -17.78961,14.78291 -1e-6,23.32342 -1.764872,203.46087 -0.751673,232.76828 0.398381,11.5234 6.7658,14.92139 15.284031,15.03347 19.044047,0.25058 66.400019,0.87424 83.936889,0.50111 12.02678,-0.25056 17.20446,-5.99995 17.78961,-23.30188 0.54859,-16.221 -0.25746,-43.10002 0.25056,-67.14951 0.1713,-8.10946 3.0067,-14.03124 11.27511,-14.2818 20.95654,-0.63506 101.50824,-0.6457 117.51164,-0.25056 20.29519,0.50112 23.55244,0.25056 24.05356,21.29742 0.5955,25.01109 0.50111,40.33982 -0.25056,59.63277 -0.80308,20.61245 6.01339,22.55021 17.03793,22.80077 16.28206,0.37005 53.87034,-0.52848 72.66179,-0.25055 24.98469,0.35841 24.51908,-7.25505 24.80523,-39.83871 0.1292,-14.03289 0.0207,-62.91302 -0.50112,-85.18968 -0.12961,-5.53348 2.75666,-9.45871 6.51451,-9.5212 15.31919,-0.25057 18.50864,39.84486 22.29965,59.88334 14.05386,74.28579 46.54037,83.76076 76.1696,83.93689 37.14167,0.23269 72.5323,-30.56027 72.66179,-93.95921 0.0195,-9.54585 -2.00447,-17.7896 -9.02009,-17.78961 -31.32791,-3e-5 -13.03349,0.45923 -29.56583,0 -8.76953,-0.25056 -16.53682,1.00223 -14.78291,14.53236 1.7539,13.53012 2.52489,38.7494 -14.53237,39.33758 -7.26617,0.25056 -13.029,-5.01115 -13.029,-19.79407 0,-14.78291 -1.04112,-165.37709 -1.50335,-177.39498 -0.25056,-6.51451 -0.50112,-16.28626 -13.53013,-16.0357 -16.283,0.32566 -420.580648,0.39375 -446.995257,0.25056 z" />
</svg>
