<?xml version="1.0" ?><svg height="284" id="svg4444" version="1.1" width="284" xmlns="http://www.w3.org/2000/svg" xmlns:cc="http://creativecommons.org/ns#" xmlns:dc="http://purl.org/dc/elements/1.1/" xmlns:rdf="http://www.w3.org/1999/02/22-rdf-syntax-ns#" xmlns:svg="http://www.w3.org/2000/svg" xmlns:xlink="http://www.w3.org/1999/xlink">
  <metadata id="metadata4454">
    <rdf:RDF>
      <cc:Work rdf:about="">
        <dc:format>image/svg+xml</dc:format>
        <dc:type rdf:resource="http://purl.org/dc/dcmitype/StillImage"/>
        <dc:title/>
        <cc:license rdf:resource="http://creativecommons.org/publicdomain/zero/1.0/"/>
      </cc:Work>
      <cc:License rdf:about="http://creativecommons.org/publicdomain/zero/1.0/">
        <cc:permits rdf:resource="http://creativecommons.org/ns#Reproduction"/>
        <cc:permits rdf:resource="http://creativecommons.org/ns#Distribution"/>
        <cc:permits rdf:resource="http://creativecommons.org/ns#DerivativeWorks"/>
      </cc:License>
    </rdf:RDF>
  </metadata>
  <defs id="defs4452">
    <mask id="mask5538" maskUnits="userSpaceOnUse">
      <g id="g5540" style="stroke:#fdffff;stroke-opacity:1" transform="matrix(14.130435,0,0,14.130435,1100.7609,-4.2391305e-5)">
        <circle cx="138" cy="138" id="circle5542" r="124" style="fill:none;stroke:#fdffff;stroke-width:28;stroke-opacity:1"/>
        <line id="line5544" style="stroke:#fdffff;stroke-width:22;stroke-opacity:1" x1="45" x2="231" y1="45" y2="231"/>
      </g>
    </mask>
  </defs><g id="g3019" transform="matrix(0.46425813,0,0,0.46425813,35.427812,48.303467)">
    <path d="m 162.423,25.163 -93.323,88.888 49.771,49.771 42.976,-43.265 c 83.815,85.069 148.96,151.207 229.89,233.345 22.405,23.231 61.421,-8.36 36.435,-35.182 C 342.667,235.39 283.399,175.243 194.316,87.878 l 52.818,-53.129 -84.711,-9.586 z" id="hammer_head" style="fill:#cc1009"/>
    <g id="g3852" transform="matrix(0.83334944,0,0,0.83334944,89.122595,-182.30111)">
      <path d="M 84.184,548.176 C 284.533,734.039 609.2,398.896 194.279,156.021 l 0,0 c 308.774,343.052 12.344,448.213 -94.99,342.388 l -5.409,-4.463 c -4.382,4.922 -8.773,9.831 -13.152,14.759 -8.313,-7.849 -21.231,-10.155 -25.209,3.266 -16.337,-1.129 -25.926,7.924 -30.204,24.886 -30.392,20.136 -63.295,37.803 -82.208,69.421 -10.807,33.446 10.568,47.994 34.754,45.223 39.643,-16.47 51.896,-52.068 73.113,-81.433 14.995,-4.777 27.701,-11.196 30.029,-24.847" id="sickle_handle" style="fill:#cc1009"/>
    </g>
  </g>
  <g id="gold" style="stroke:#000000;stroke-opacity:1" transform="translate(4,4)">
    <circle cx="138" cy="138" id="circle4458" r="124" style="fill:none;stroke:#000000;stroke-width:36;stroke-miterlimit:4;stroke-dasharray:none;stroke-opacity:1"/>
    <line id="line4456" style="stroke:#000000;stroke-width:30;stroke-miterlimit:4;stroke-dasharray:none;stroke-opacity:1" x1="45" x2="231" y1="45" y2="231"/>
  </g>
  <g id="g5472" mask="url(#mask5538)" transform="matrix(0.07076923,0,0,0.07076923,-73.9,4.000003)">
    <rect height="3900" id="rect5435" style="fill:#b22234" width="7410" x="0" y="0"/>
    <path d="m 0,450 7410,0 m 0,600 -7410,0 m 0,600 7410,0 m 0,600 -7410,0 m 0,600 7410,0 m 0,600 -7410,0" id="path5437" style="stroke:#ffffff;stroke-width:300"/>
    <rect height="2100" id="rect5439" style="fill:#3c3b6e" width="2964" x="0" y="0"/>
    <g id="g5441" style="fill:#ffffff">
      <g id="s18">
        <g id="s9">
          <g id="s5">
            <g id="s4">
              <path d="m 247,90 70.53423,217.08204 -184.66101,-134.16408 228.25356,0 -184.66101,134.16408 z" id="s"/>
              <use height="100%" id="use5448" width="100%" x="0" xlink:href="#s" y="420"/>
              <use height="100%" id="use5450" width="100%" x="0" xlink:href="#s" y="840"/>
              <use height="100%" id="use5452" width="100%" x="0" xlink:href="#s" y="1260"/>
            </g>
            <use height="100%" id="use5454" width="100%" x="0" xlink:href="#s" y="1680"/>
          </g>
          <use height="100%" id="use5456" width="100%" x="247" xlink:href="#s4" y="210"/>
        </g>
        <use height="100%" id="use5458" width="100%" x="494" xlink:href="#s9" y="0"/>
      </g>
      <use height="100%" id="use5460" width="100%" x="988" xlink:href="#s18" y="0"/>
      <use height="100%" id="use5462" width="100%" x="1976" xlink:href="#s9" y="0"/>
      <use height="100%" id="use5464" width="100%" x="2470" xlink:href="#s5" y="0"/>
    </g>
  </g>
</svg>