<?xml version="1.0" ?><svg height="284" id="svg4444" version="1.1" width="284" xmlns="http://www.w3.org/2000/svg" xmlns:cc="http://creativecommons.org/ns#" xmlns:dc="http://purl.org/dc/elements/1.1/" xmlns:rdf="http://www.w3.org/1999/02/22-rdf-syntax-ns#" xmlns:svg="http://www.w3.org/2000/svg">
  <metadata id="metadata4454">
    <rdf:RDF>
      <cc:Work rdf:about="">
        <dc:format>image/svg+xml</dc:format>
        <dc:type rdf:resource="http://purl.org/dc/dcmitype/StillImage"/>
        <dc:title/>
        <cc:license rdf:resource="http://creativecommons.org/publicdomain/zero/1.0/"/>
      </cc:Work>
      <cc:License rdf:about="http://creativecommons.org/publicdomain/zero/1.0/">
        <cc:permits rdf:resource="http://creativecommons.org/ns#Reproduction"/>
        <cc:permits rdf:resource="http://creativecommons.org/ns#Distribution"/>
        <cc:permits rdf:resource="http://creativecommons.org/ns#DerivativeWorks"/>
      </cc:License>
    </rdf:RDF>
  </metadata>
  <defs id="defs4452">
    <mask id="mask5538" maskUnits="userSpaceOnUse">
      <g id="g5540" style="stroke:#fdffff;stroke-opacity:1" transform="matrix(14.130435,0,0,14.130435,1100.7609,-4.2391305e-5)">
        <circle cx="138" cy="138" id="circle5542" r="124" style="fill:none;stroke:#fdffff;stroke-width:28;stroke-opacity:1"/>
        <line id="line5544" style="stroke:#fdffff;stroke-width:22;stroke-opacity:1" x1="45" x2="231" y1="45" y2="231"/>
      </g>
    </mask>
  </defs><g id="g4230" transform="matrix(-0.52698663,0,0,0.52698663,223.96198,62.519763)"/><path d="M 195.30469 64.728516 C 194.89667 64.704837 194.48352 64.978259 194.0293 65.601562 C 193.93845 65.726225 193.8443 65.864439 193.75 66.017578 C 193.56142 66.323855 193.36769 66.687894 193.16211 67.113281 C 192.95654 67.538669 192.74051 68.024838 192.51367 68.576172 C 192.28683 69.127599 192.04729 69.743337 191.79492 70.427734 C 191.54256 71.112133 191.27825 71.865155 190.99609 72.689453 C 190.77887 73.324044 190.58489 73.896124 190.41406 74.416016 C 189.38912 77.535365 189.16247 78.801602 189.27344 80.761719 C 189.29194 81.088405 189.31832 81.433564 189.35352 81.810547 C 189.46362 82.989969 189.48526 83.979605 189.41016 84.806641 C 189.39516 84.972048 189.37642 85.130469 189.35352 85.283203 C 189.30781 85.588668 189.24587 85.869342 189.16797 86.126953 C 188.89521 87.028593 188.42166 87.64848 187.72266 88.068359 C 187.6228 88.128342 187.51929 88.184278 187.41016 88.236328 C 187.25513 88.310266 186.9765 88.420945 186.60352 88.556641 C 186.23055 88.692338 185.76361 88.853105 185.23633 89.029297 C 184.70906 89.205488 184.11989 89.396376 183.50195 89.591797 C 182.88401 89.787218 182.23677 89.988254 181.5918 90.181641 C 178.84361 91.005655 176.69378 91.737408 174.67383 92.675781 C 173.86585 93.05113 173.07918 93.459787 172.2832 93.919922 C 170.29324 95.07026 168.24596 96.544824 165.67773 98.640625 C 164.65044 99.478946 163.54075 100.41657 162.31641 101.47266 C 161.09208 102.52874 159.75258 103.70378 158.27148 105.01562 C 157.40903 105.77953 156.65016 106.45039 155.95898 107.03906 C 155.6134 107.3334 155.28352 107.60653 154.96875 107.86133 C 154.65397 108.11613 154.35251 108.3522 154.06055 108.57031 C 153.76858 108.78842 153.48614 108.98957 153.20898 109.17383 C 152.93182 109.3581 152.66098 109.52447 152.39062 109.67773 C 151.8499 109.98426 151.31543 110.23205 150.75391 110.43164 C 150.47315 110.53144 150.18468 110.61997 149.88672 110.69727 C 148.69485 111.00659 147.33416 111.14734 145.54688 111.21094 C 145.10005 111.22684 144.62513 111.23809 144.12109 111.24609 C 143.11301 111.26159 141.98225 111.2623 140.69727 111.26172 L 132.00391 111.25781 L 120.67188 107.45898 C 119.03664 106.91064 117.51175 106.4028 116.08203 105.93164 C 114.65231 105.46049 113.3183 105.02541 112.07227 104.625 C 109.58021 103.82419 107.43318 103.15992 105.54492 102.60352 C 103.65666 102.04712 102.02745 101.59978 100.56836 101.23633 C 99.838811 101.05461 99.153044 100.89314 98.498047 100.75 C 97.84305 100.60687 97.219465 100.48012 96.617188 100.36914 C 96.127222 100.27886 95.666301 100.20674 95.226562 100.15234 C 95.006692 100.12514 94.793316 100.10344 94.582031 100.08594 C 93.525618 99.998568 92.559776 100.03449 91.519531 100.22656 C 91.103438 100.3034 90.675172 100.40481 90.224609 100.5332 C 89.774051 100.66158 89.301119 100.8181 88.794922 101.00195 C 88.288725 101.18579 87.749021 101.39744 87.166016 101.64062 C 86.583005 101.88385 85.956379 102.15835 85.275391 102.46484 C 83.440587 103.29063 81.185445 104.26707 80.263672 104.63477 C 80.13016 104.68803 79.994228 104.74795 79.857422 104.81445 C 79.720621 104.88092 79.583064 104.9541 79.443359 105.0332 C 78.605134 105.50792 77.717899 106.20576 76.824219 107.06641 C 76.526324 107.35329 76.227525 107.6576 75.929688 107.97852 C 75.036186 108.94129 74.149492 110.04678 73.3125 111.23633 C 72.754505 112.02937 72.218568 112.85935 71.716797 113.70898 C 71.46591 114.1338 71.224356 114.56376 70.992188 114.99609 C 70.760024 115.42842 70.536508 115.8634 70.326172 116.29883 C 69.9055 117.16969 69.531482 118.04171 69.216797 118.89844 C 69.059433 119.32679 68.917203 119.75173 68.791016 120.16992 C 68.664834 120.58812 68.556754 121.00069 68.464844 121.4043 C 68.374456 121.80122 68.308578 122.30843 68.267578 122.91016 C 68.247078 123.21101 68.233309 123.5354 68.224609 123.88086 C 68.215826 124.22634 68.212244 124.59283 68.214844 124.97852 C 68.230764 127.29264 68.44934 130.29165 68.826172 133.5 C 68.951785 134.56945 69.094392 135.66321 69.253906 136.76172 C 69.413425 137.86023 69.588976 138.96421 69.779297 140.05664 C 69.874455 140.60285 69.971936 141.14549 70.074219 141.68359 C 70.176502 142.22169 70.28356 142.75566 70.392578 143.28125 L 70.691406 144.73047 L 125.20117 144.73047 L 179.70898 144.73047 L 180.98438 141.8457 C 181.88068 139.81898 183.20141 137.65475 184.66602 135.68359 C 184.91012 135.35507 185.15741 135.03305 185.4082 134.7168 C 185.659 134.40056 185.91308 134.08996 186.16797 133.78906 C 186.42285 133.48817 186.67918 133.19655 186.93555 132.91406 C 187.96105 131.78416 188.98818 130.81211 189.93359 130.09961 C 190.16994 129.92149 190.40015 129.7596 190.625 129.61523 C 190.84985 129.47087 191.06855 129.34582 191.2793 129.23828 C 191.49004 129.13074 191.69268 129.04221 191.88672 128.97461 C 192.08826 128.90431 192.27069 128.84704 192.44336 128.80664 C 192.5297 128.78654 192.61437 128.76831 192.69727 128.75781 C 192.78016 128.74741 192.86136 128.74361 192.94336 128.74414 C 193.10729 128.74534 193.27194 128.77012 193.44727 128.82422 C 193.53493 128.85127 193.6264 128.88523 193.7207 128.92773 C 194.00355 129.05518 194.32125 129.25468 194.70898 129.54688 C 195.48444 130.13126 196.53808 131.08525 198.14062 132.5625 C 198.49383 132.88809 198.867 133.20632 199.25781 133.51562 C 200.03944 134.13422 200.88591 134.71401 201.75781 135.23633 C 202.19376 135.49749 202.63661 135.7453 203.08008 135.97461 C 204.18877 136.54789 205.30552 137.01256 206.35156 137.33008 C 206.76997 137.45709 207.17752 137.56167 207.56836 137.63867 C 207.76379 137.67717 207.954 137.70937 208.14062 137.73438 C 209.08488 137.86103 210.28016 137.79069 211.53516 137.58008 C 212.28816 137.45371 213.06193 137.2753 213.81836 137.05859 C 214.32264 136.91412 214.81923 136.75413 215.29492 136.57812 C 215.77061 136.40213 216.22545 136.21038 216.64844 136.00977 C 217.07143 135.80915 217.46239 135.5992 217.80859 135.38086 C 218.15479 135.16252 218.45586 134.93618 218.70117 134.70703 C 219.68149 133.79127 220.07538 133.1924 220.21094 132.0918 C 220.23354 131.90837 220.24781 131.71118 220.25781 131.49609 C 220.26721 131.281 220.27344 131.04924 220.27344 130.79492 C 220.27344 130.5641 220.26716 130.32141 220.25586 130.07031 C 220.24456 129.81921 220.22903 129.55935 220.20703 129.29102 C 220.07529 127.68115 219.7571 125.78831 219.33203 123.94531 C 219.19034 123.33098 219.03796 122.72201 218.875 122.13086 C 218.71203 121.53971 218.5399 120.96726 218.36133 120.42383 C 218.18275 119.8804 217.99712 119.3657 217.80859 118.89453 C 217.62006 118.42336 217.4272 117.99547 217.23438 117.62109 C 217.08811 117.33713 216.95749 117.06804 216.83789 116.80273 C 216.71829 116.53743 216.61037 116.27633 216.51367 116.00977 C 216.41695 115.7432 216.32955 115.46939 216.25195 115.18164 C 216.17434 114.8939 216.10527 114.59251 216.04297 114.26367 C 215.91843 113.60599 215.82213 112.8459 215.73633 111.9043 C 215.65051 110.96271 215.5773 109.838 215.5 108.45312 C 215.33042 105.4142 215.20732 103.7275 214.9043 102.35938 C 214.75279 101.67529 214.55588 101.07198 214.28516 100.41797 C 214.14979 100.09097 213.9962 99.750762 213.82031 99.382812 C 213.64441 99.014871 213.44625 98.618924 213.22266 98.177734 C 212.17038 96.101356 211.3115 93.961336 211.3125 93.421875 C 211.313 93.219578 211.44213 92.876307 211.66406 92.455078 C 211.73804 92.314668 211.82302 92.165127 211.91602 92.009766 C 212.2879 91.388325 212.79969 90.665335 213.36328 89.992188 C 214.31855 88.851218 215.07384 87.886913 215.66406 86.996094 C 215.81162 86.773389 215.9486 86.556922 216.07617 86.341797 C 216.45888 85.696419 216.75332 85.076573 216.97656 84.441406 C 217.05097 84.229684 217.11873 84.017813 217.17773 83.800781 C 217.3546 83.149685 217.46328 82.46587 217.52148 81.708984 C 217.54088 81.456689 217.55645 81.196275 217.56445 80.925781 C 217.58985 80.114299 217.56813 79.212958 217.51562 78.179688 C 217.49312 77.737615 217.46258 77.306009 217.42578 76.884766 C 217.31545 75.621036 217.14377 74.455896 216.91992 73.410156 C 216.8453 73.061577 216.76519 72.725265 216.67969 72.404297 C 216.5086 71.762364 216.3152 71.177558 216.10547 70.65625 C 215.68599 69.613635 215.19575 68.826368 214.66211 68.347656 C 214.5287 68.227978 214.3943 68.127075 214.25586 68.046875 C 213.90976 67.846404 213.548 67.773051 213.17969 67.837891 C 213.10603 67.850861 213.03318 67.868368 212.95898 67.892578 C 212.88474 67.916798 212.80908 67.946742 212.73438 67.982422 C 212.65967 68.018103 212.58487 68.060072 212.50977 68.107422 C 212.4569 68.140776 212.39271 68.203186 212.32031 68.291016 C 212.10301 68.554502 211.8057 69.049273 211.47266 69.6875 C 211.02861 70.538469 210.52278 71.645019 210.06055 72.802734 C 209.50333 74.198337 208.93919 75.504161 208.38672 76.693359 C 207.83426 77.882558 207.29294 78.953717 206.77734 79.878906 C 206.51953 80.3415 206.26796 80.768506 206.02539 81.154297 C 205.66153 81.732983 205.31634 82.221796 204.99805 82.607422 C 204.78585 82.864505 204.58732 83.074049 204.40039 83.236328 C 204.30692 83.317467 204.21726 83.387269 204.13086 83.443359 C 204.00904 83.522444 203.89683 83.591731 203.79492 83.650391 C 203.693 83.709058 203.60027 83.756962 203.51367 83.794922 C 203.34039 83.87084 203.19271 83.905084 203.05273 83.896484 C 202.98275 83.892174 202.9143 83.877435 202.8457 83.851562 C 202.70848 83.799815 202.56967 83.704164 202.41016 83.564453 C 202.33041 83.494598 202.2466 83.414536 202.1543 83.322266 C 202.07492 83.242887 202.00029 83.153477 201.93359 83.052734 C 201.86683 82.95199 201.80685 82.839528 201.75195 82.712891 C 201.53224 82.206342 201.404 81.475085 201.3418 80.373047 C 201.3263 80.097538 201.31464 79.798661 201.30664 79.474609 C 201.29934 79.150557 201.29555 78.800953 201.29492 78.423828 C 201.29263 77.019203 201.2674 76.052299 201.12305 75.173828 C 201.02682 74.58818 200.87833 74.042065 200.64844 73.431641 C 200.53349 73.12643 200.39721 72.805278 200.23828 72.455078 C 200.07934 72.104879 199.89748 71.723782 199.6875 71.302734 C 199.47752 70.881685 199.23877 70.420104 198.9707 69.902344 C 198.65213 69.287067 198.32455 68.684918 198.00391 68.123047 C 197.68327 67.561179 197.36999 67.03964 197.08203 66.585938 C 196.93806 66.359086 196.80116 66.148526 196.67188 65.958984 C 196.41327 65.579899 196.18745 65.282532 196.01367 65.09375 C 195.92678 64.999359 195.85217 64.931081 195.79297 64.894531 C 195.71132 64.844104 195.63218 64.805364 195.55078 64.777344 C 195.46942 64.749324 195.38629 64.733216 195.30469 64.728516 z M 85.074219 119.60156 C 95.062814 125.4484 95.090441 132.53412 91.669922 136.24805 C 92.519081 137.08485 93.279741 137.84479 94.224609 138.76562 C 95.515301 140.15116 93.501117 141.78207 92.34375 140.58203 C 91.392704 139.61679 90.530153 138.74069 89.642578 137.83984 C 86.920817 139.33241 83.310198 139.24163 80.335938 136.48242 L 80.199219 136.35547 C 80.099003 136.94312 79.551755 137.21819 78.90625 137.42383 C 77.9929 138.68793 77.464365 140.22069 75.757812 140.92969 C 74.716653 141.04897 73.796499 140.4222 74.261719 138.98242 C 75.075886 137.62133 76.492465 136.86096 77.800781 135.99414 C 77.98494 135.26396 78.398287 134.87523 79.101562 134.92383 C 79.272807 134.34608 79.829641 134.44532 80.1875 134.7832 C 80.376007 134.57106 80.563317 134.36032 80.751953 134.14844 L 80.986328 134.33984 C 82.641928 135.97217 85.339101 136.43076 87.511719 135.67773 C 85.251131 133.3833 83.036612 131.13558 80.46875 128.5293 L 78.248047 130.76367 L 75.677734 128.19336 L 80.498047 123.60156 L 84.873047 124.0957 L 82.144531 126.83984 C 84.994647 129.63499 87.323294 131.94975 89.679688 134.28516 C 91.852304 131.90212 91.787579 127.06019 85.074219 119.60156 z M 111.74023 119.60156 C 121.72882 125.4484 121.75699 132.53412 118.33594 136.24805 C 119.18509 137.08485 119.94576 137.84479 120.89062 138.76562 C 122.18133 140.15116 120.16518 141.78207 119.00781 140.58203 C 118.05677 139.61679 117.19422 138.74069 116.30664 137.83984 C 113.58458 139.33238 109.97424 139.24162 107 136.48242 L 106.86328 136.35547 C 106.76306 136.94312 106.21581 137.21819 105.57031 137.42383 C 104.65696 138.68793 104.13038 140.22069 102.42383 140.92969 C 101.38267 141.04897 100.46251 140.4222 100.92773 138.98242 C 101.7419 137.62133 103.15849 136.86096 104.4668 135.99414 C 104.65096 135.26396 105.06235 134.87523 105.76562 134.92383 C 105.93689 134.34608 106.4937 134.44532 106.85156 134.7832 C 107.04007 134.57106 107.22933 134.36032 107.41797 134.14844 L 107.65039 134.33984 C 109.30623 135.9724 112.00464 136.43121 114.17773 135.67773 C 111.91683 133.38297 109.70103 131.13594 107.13281 128.5293 L 104.91211 130.76367 L 102.3418 128.19336 L 107.16211 123.60156 L 111.53906 124.0957 L 108.81055 126.83984 C 111.66028 129.63462 113.9877 131.95009 116.34375 134.28516 C 118.51686 131.90212 118.45359 127.06019 111.74023 119.60156 z M 139.45508 119.60156 C 149.44367 125.4484 149.47184 132.53412 146.05078 136.24805 C 146.89994 137.08485 147.6606 137.84479 148.60547 138.76562 C 149.89617 140.15116 147.88003 141.78207 146.72266 140.58203 C 145.77161 139.61679 144.90906 138.74069 144.02148 137.83984 C 141.29943 139.33238 137.68909 139.24162 134.71484 136.48242 L 134.57812 136.35547 C 134.4779 136.94312 133.93066 137.21819 133.28516 137.42383 C 132.37181 138.68793 131.84522 140.22069 130.13867 140.92969 C 129.09751 141.04897 128.17736 140.4222 128.64258 138.98242 C 129.45675 137.62133 130.87333 136.86096 132.18164 135.99414 C 132.3658 135.26396 132.7772 134.87523 133.48047 134.92383 C 133.65172 134.34608 134.20855 134.44532 134.56641 134.7832 C 134.75492 134.57106 134.94417 134.36032 135.13281 134.14844 L 135.36523 134.33984 C 137.02107 135.9724 139.71948 136.43121 141.89258 135.67773 C 139.63167 133.38297 137.41587 131.13594 134.84766 128.5293 L 132.62891 130.76367 L 130.05664 128.19336 L 134.87695 123.60156 L 139.25391 124.0957 L 136.52539 126.83984 C 139.37513 129.63462 141.70254 131.95009 144.05859 134.28516 C 146.2317 131.90212 146.16844 127.06019 139.45508 119.60156 z M 166.47656 119.60156 C 176.46515 125.4484 176.49278 132.53412 173.07227 136.24805 C 173.92142 137.08485 174.68209 137.84479 175.62695 138.76562 C 176.91765 140.15116 174.90346 141.78207 173.74609 140.58203 C 172.79505 139.61679 171.9325 138.74069 171.04492 137.83984 C 168.32316 139.33241 164.71254 139.24163 161.73828 136.48242 L 161.60156 136.35547 C 161.50134 136.94312 160.95409 137.21819 160.30859 137.42383 C 159.39524 138.68793 158.86671 140.22069 157.16016 140.92969 C 156.119 141.04897 155.19884 140.4222 155.66406 138.98242 C 156.47823 137.62133 157.89481 136.86096 159.20312 135.99414 C 159.38729 135.26396 159.80064 134.87523 160.50391 134.92383 C 160.67516 134.34608 161.23198 134.44532 161.58984 134.7832 C 161.77835 134.57106 161.96566 134.36032 162.1543 134.14844 L 162.38867 134.33984 C 164.04427 135.97217 166.74144 136.43076 168.91406 135.67773 C 166.65347 133.3833 164.43896 131.13558 161.87109 128.5293 L 159.65039 130.76367 L 157.08008 128.19336 L 161.90039 123.60156 L 166.27539 124.0957 L 163.54688 126.83984 C 166.39699 129.63499 168.72564 131.94975 171.08203 134.28516 C 173.25465 131.90212 173.18992 127.06019 166.47656 119.60156 z " id="rect4483" style="fill:#031bbb;fill-opacity:1;stroke:none;stroke-width:36;stroke-linejoin:miter;stroke-miterlimit:4;stroke-dasharray:none;stroke-opacity:1"/><rect height="1.9944416" id="rect4487" style="fill:#031bbb;fill-opacity:1;stroke:none;stroke-width:36;stroke-linejoin:miter;stroke-miterlimit:4;stroke-dasharray:none;stroke-opacity:1" transform="scale(-1,1)" width="0.097289838" x="-151.67563" y="117.19666"/><path d="m 91.086354,224.10753 c 1.673456,-0.32803 3.631533,-1.58551 4.186007,-2.68826 0.727779,-1.44741 0.244664,-2.24648 -3.942597,-6.52103 l -3.797603,-3.87677 -0.285084,-3.25201 c -0.34251,-3.90699 -0.34848,-3.93564 -1.579621,-7.57691 l -0.976912,-2.88936 0.19275,-8.64925 0.192746,-8.64923 2.854212,-5.79757 c 1.569819,-3.18866 3.306061,-6.32384 3.858317,-6.96707 1.184023,-1.37906 2.087805,-1.53061 2.784739,-0.46695 0.421674,0.64355 0.424925,0.82264 0.03868,2.13262 -0.2319,0.78655 -0.931512,2.75327 -1.554695,4.3705 -1.26824,3.29124 -1.38276,4.48774 -0.586878,6.13181 0.49387,1.02019 4.050208,4.69124 9.428994,9.73311 l 1.85745,1.74111 0,4.61674 c 0,5.2911 -0.0492,5.15389 3.03456,8.45701 2.03468,2.17938 3.74419,4.58314 5.63928,7.92946 1.81732,3.20898 3.3688,5.47015 4.04156,5.8903 0.81949,0.51178 4.62236,0.92116 6.82218,0.73441 5.54578,-0.47081 7.31319,-2.60626 5.13959,-6.20984 -0.50209,-0.83242 -3.15442,-4.55913 -5.89406,-8.28159 -7.45812,-10.13366 -8.87673,-12.46742 -8.87673,-14.6031 0,-0.44072 -0.43341,-1.92353 -0.96313,-3.29514 -0.58069,-1.50362 -0.96312,-2.97808 -0.96312,-3.7134 0,-1.61889 1.17342,-4.65009 4.14441,-10.7059 3.03065,-6.17744 3.70803,-7.15079 5.27301,-7.57713 1.465,-0.39911 4.88497,-0.18438 8.76638,0.55041 3.99393,0.75609 6.03682,1.00759 13.57559,1.67128 3.61936,0.31864 6.81455,0.70452 7.10042,0.85752 1.13769,0.60887 4.38612,6.66594 5.70947,10.64595 1.25863,3.78539 1.72262,6.47217 1.74383,10.09791 0.0179,3.06169 -0.0535,3.53254 -0.9809,6.46666 -0.55012,1.7405 -1.25148,4.0353 -1.55858,5.09957 -0.62066,2.15092 -1.23738,2.87911 -4.01051,4.73541 -2.18028,1.45945 -2.72128,2.08386 -2.51557,2.90346 0.36875,1.46926 9.41388,11.47716 10.37304,11.47716 0.2412,0 1.04815,-0.4334 1.79321,-0.96312 1.48199,-1.05366 2.69492,-1.24789 3.00729,-0.48156 0.10797,0.26486 0.29412,1.33111 0.41369,2.36945 0.1248,1.08386 0.39986,2.07037 0.64586,2.31636 0.54382,0.54382 6.61705,0.83202 12.46799,0.59165 3.76132,-0.15452 4.06796,-0.20797 4.54042,-0.79143 0.27867,-0.34415 0.50668,-0.96916 0.50668,-1.38891 0,-1.45819 -2.25882,-5.41508 -6.83408,-11.97158 -0.85991,-1.23229 -1.21803,-2.06985 -1.41194,-3.30213 -0.14288,-0.90809 -0.459,-2.92188 -0.70247,-4.47508 -0.24347,-1.55322 -0.7753,-3.72023 -1.18184,-4.81561 -0.73293,-1.97476 -0.73874,-2.04732 -0.68781,-8.59129 0.0511,-6.56053 0.41564,-12.23358 0.95524,-14.86411 0.15523,-0.75674 1.26091,-5.15269 2.45707,-9.7688 2.83882,-10.95529 3.31455,-13.15067 2.90709,-13.4154 -0.17428,-0.11323 -24.11778,-0.23898 -53.20778,-0.27945 l -52.890939,-0.0736 -0.302248,1.17429 c -0.656182,2.54937 -1.167381,3.79372 -2.54856,6.20365 -2.803458,4.89157 -6.730288,9.68289 -8.418032,10.27124 -2.244014,0.78227 -2.923021,7.42017 -1.165457,11.39343 0.770376,1.74156 1.243488,1.59169 1.960222,-0.62099 0.330921,-1.02159 1.000336,-2.54184 1.487588,-3.37831 1.139103,-1.95552 1.531455,-3.10414 1.538959,-4.5053 0.0089,-1.65149 0.764247,-3.04317 3.077054,-5.66886 2.760762,-3.13426 4.754263,-4.95319 5.428542,-4.95319 0.346641,0 0.726804,0.33208 1.012399,0.88436 0.382292,0.73927 0.430923,1.42782 0.296404,4.19646 -0.17712,3.64545 -0.861381,7.19014 -2.764156,14.31917 -2.263565,8.48078 -2.284012,10.71226 -0.124932,13.63264 0.758876,1.02645 1.011403,3.36623 1.297146,12.01862 l 0.256426,7.76474 2.527033,4.20547 c 3.232704,5.37986 4.186972,6.61883 5.744707,7.45869 2.072723,1.11752 6.612038,1.5817 9.647982,0.98659 z" id="path4160" style="fill:#ff0000;fill-opacity:1;stroke:none;stroke-width:36;stroke-linejoin:miter;stroke-miterlimit:4;stroke-dasharray:none;stroke-opacity:1"/>
  <g id="gold" style="stroke:#000000;stroke-opacity:1" transform="translate(4,4)">
    <circle cx="138" cy="138" id="circle4458" r="124" style="fill:none;stroke:#000000;stroke-width:36;stroke-miterlimit:4;stroke-dasharray:none;stroke-opacity:1"/>
    <line id="line4456" style="stroke:#000000;stroke-width:30;stroke-miterlimit:4;stroke-dasharray:none;stroke-opacity:1" x1="45" x2="231" y1="45" y2="231"/>
  </g>
  <g id="g5941" style="stroke:#cc1009;stroke-opacity:1" transform="translate(4,4)">
    <circle cx="138" cy="138" id="circle5931" r="124" style="fill:none;stroke:#cc1009;stroke-width:28;stroke-opacity:1"/>
    <line id="line5933" style="stroke:#cc1009;stroke-width:22;stroke-opacity:1" x1="45" x2="231" y1="45" y2="231"/>
  </g>
</svg>