<?xml version="1.0" ?><svg height="284" id="svg4444" version="1.1" width="284" xmlns="http://www.w3.org/2000/svg" xmlns:cc="http://creativecommons.org/ns#" xmlns:dc="http://purl.org/dc/elements/1.1/" xmlns:rdf="http://www.w3.org/1999/02/22-rdf-syntax-ns#" xmlns:svg="http://www.w3.org/2000/svg">
  <metadata id="metadata4454">
    <rdf:RDF>
      <cc:Work rdf:about="">
        <dc:format>image/svg+xml</dc:format>
        <dc:type rdf:resource="http://purl.org/dc/dcmitype/StillImage"/>
        <dc:title/>
        <cc:license rdf:resource="http://creativecommons.org/publicdomain/zero/1.0/"/>
      </cc:Work>
      <cc:License rdf:about="http://creativecommons.org/publicdomain/zero/1.0/">
        <cc:permits rdf:resource="http://creativecommons.org/ns#Reproduction"/>
        <cc:permits rdf:resource="http://creativecommons.org/ns#Distribution"/>
        <cc:permits rdf:resource="http://creativecommons.org/ns#DerivativeWorks"/>
      </cc:License>
    </rdf:RDF>
  </metadata>
  <defs id="defs4452">
    <mask id="mask5538" maskUnits="userSpaceOnUse">
      <g id="g5540" style="stroke:#fdffff;stroke-opacity:1" transform="matrix(14.130435,0,0,14.130435,1100.7609,-4.2391305e-5)">
        <circle cx="138" cy="138" id="circle5542" r="124" style="fill:none;stroke:#fdffff;stroke-width:28;stroke-opacity:1"/>
        <line id="line5544" style="stroke:#fdffff;stroke-width:22;stroke-opacity:1" x1="45" x2="231" y1="45" y2="231"/>
      </g>
    </mask>
    <mask id="mask4259" maskUnits="userSpaceOnUse">
      <path d="m -192.159,-20.281496 c -82.66247,0 -150,67.337532 -150,149.999996 0,82.66247 67.33753,150 150,150 82.66247,0 150,-67.33753 150,-150 0,-82.662464 -67.33753,-149.999996 -150,-149.999996 z m 0,30.434783 c 66.21429,0 119.565217,53.350927 119.565217,119.565213 0,28.78522 -10.0865,55.13567 -26.925521,75.73243 L -267.89142,37.078813 c 20.59675,-16.83903 46.9472,-26.925526 75.73242,-26.925526 z m -92.63969,43.832796 168.37211,168.372117 c -20.59676,16.83902 -46.9472,26.92552 -75.73242,26.92552 -66.21429,0 -119.56522,-53.35092 -119.56522,-119.56522 0,-28.78521 10.0865,-55.135661 26.92553,-75.732417 z" id="path4261" style="color:#000000;font-style:normal;font-variant:normal;font-weight:normal;font-stretch:normal;font-size:medium;line-height:normal;font-family:sans-serif;text-indent:0;text-align:start;text-decoration:none;text-decoration-line:none;text-decoration-style:solid;text-decoration-color:#000000;letter-spacing:normal;word-spacing:normal;text-transform:none;direction:ltr;block-progression:tb;writing-mode:lr-tb;baseline-shift:baseline;text-anchor:start;white-space:normal;clip-rule:nonzero;display:inline;overflow:visible;visibility:visible;opacity:1;isolation:auto;mix-blend-mode:normal;color-interpolation:sRGB;color-interpolation-filters:linearRGB;solid-color:#000000;solid-opacity:1;fill:#ffffff;fill-opacity:1;fill-rule:nonzero;stroke:none;stroke-width:28;stroke-linecap:butt;stroke-linejoin:miter;stroke-miterlimit:4;stroke-dasharray:none;stroke-dashoffset:0;stroke-opacity:1;color-rendering:auto;image-rendering:auto;shape-rendering:auto;text-rendering:auto;enable-background:accumulate"/>
    </mask>
  </defs><g id="g4876" transform="matrix(0.29744239,0,0,0.29744239,55.849383,59.674667)">
    <path d="m 25.556904,181.24351 c 0.0025,36.46432 1.250696,39.40115 22.55021,39.33759 21.069035,-0.0652 436.918056,-0.50485 437.223506,-0.50111 16.27562,0.20226 20.62292,-3.75397 20.54574,-31.5703 C 505.47315,42.934967 413.17215,9.9284822 264.08801,10.864154 136.30486,11.666139 25.547142,40.413678 25.556904,181.24351 Z" id="back" style="fill:#1404bd;fill-opacity:1;fill-rule:evenodd;stroke:none"/>
    <path d="M 127.2834,184.50076 112.83563,141.03723 67.233145,140.87169 104.1048,113.70006 90.170302,70.278369 l 37.235718,26.670542 36.99049,-26.670544 -13.85873,43.654923 36.79589,26.93839 -45.80088,0.30969 -14.24939,43.31939 z" id="star1" style="fill:#ffffff;fill-opacity:1;fill-rule:evenodd;stroke:none"/>
    <path d="m 267.09452,183.98365 -14.44777,-43.46353 -45.60249,-0.16554 36.87166,-27.17163 -13.9345,-43.421691 37.23572,26.670542 36.99049,-26.670544 -13.85873,43.654923 36.79589,26.93839 -45.80088,0.30969 -14.24939,43.31939 z" id="star2" style="fill:#ffffff;fill-opacity:1;fill-rule:evenodd;stroke:none"/>
    <path d="m 406.65552,184.48476 -14.44777,-43.46353 -45.60249,-0.16554 36.87166,-27.17163 -13.9345,-43.421691 37.23572,26.670542 36.99049,-26.670544 -13.85873,43.654923 36.79589,26.93839 -45.80088,0.30969 -14.24939,43.31939 z" id="star3" style="fill:#ffffff;fill-opacity:1;fill-rule:evenodd;stroke:none"/>
    <path d="m 44.599303,235.11346 c -13.17481,-0.0755 -17.789609,3.50781 -17.78961,14.78291 -1e-6,23.32342 -1.764872,203.46087 -0.751673,232.76828 0.398381,11.5234 6.7658,14.92139 15.284031,15.03347 19.044047,0.25058 66.400019,0.87424 83.936889,0.50111 12.02678,-0.25056 17.20446,-5.99995 17.78961,-23.30188 0.54859,-16.221 -0.25746,-43.10002 0.25056,-67.14951 0.1713,-8.10946 3.0067,-14.03124 11.27511,-14.2818 20.95654,-0.63506 101.50824,-0.6457 117.51164,-0.25056 20.29519,0.50112 23.55244,0.25056 24.05356,21.29742 0.5955,25.01109 0.50111,40.33982 -0.25056,59.63277 -0.80308,20.61245 6.01339,22.55021 17.03793,22.80077 16.28206,0.37005 53.87034,-0.52848 72.66179,-0.25055 24.98469,0.35841 24.51908,-7.25505 24.80523,-39.83871 0.1292,-14.03289 0.0207,-62.91302 -0.50112,-85.18968 -0.12961,-5.53348 2.75666,-9.45871 6.51451,-9.5212 15.31919,-0.25057 18.50864,39.84486 22.29965,59.88334 14.05386,74.28579 46.54037,83.76076 76.1696,83.93689 37.14167,0.23269 72.5323,-30.56027 72.66179,-93.95921 0.0195,-9.54585 -2.00447,-17.7896 -9.02009,-17.78961 -31.32791,-3e-5 -13.03349,0.45923 -29.56583,0 -8.76953,-0.25056 -16.53682,1.00223 -14.78291,14.53236 1.7539,13.53012 2.52489,38.7494 -14.53237,39.33758 -7.26617,0.25056 -13.029,-5.01115 -13.029,-19.79407 0,-14.78291 -1.04112,-165.37709 -1.50335,-177.39498 -0.25056,-6.51451 -0.50112,-16.28626 -13.53013,-16.0357 -16.283,0.32566 -420.580648,0.39375 -446.995257,0.25056 z" id="trunk" style="fill:#ff0000;fill-opacity:1;fill-rule:evenodd;stroke:none"/>
  </g>
  <g id="gold" style="stroke:#000000;stroke-opacity:1" transform="translate(4,4)">
    <circle cx="138" cy="138" id="circle4458" r="124" style="fill:none;stroke:#000000;stroke-width:36;stroke-miterlimit:4;stroke-dasharray:none;stroke-opacity:1"/>
    <line id="line4456" style="stroke:#000000;stroke-width:30;stroke-miterlimit:4;stroke-dasharray:none;stroke-opacity:1" x1="45" x2="231" y1="45" y2="231"/>
  </g>
  <g id="g4210" mask="url(#mask4259)" transform="matrix(0.92,0,0,0.92,318.78628,22.658976)">
    <path d="m -417.159,-20.281496 450.000003,0 0,299.999996 -450.000003,0 z" id="rect4194" style="stroke:none;stroke-opacity:1"/>
    <path d="M 450,0 0,0 0,300 Z" id="polygon4196" style="fill:#cc1009;fill-opacity:1;stroke:none;stroke-opacity:1" transform="translate(-417.15898,-20.281496)"/>
  </g>
</svg>