<?xml version="1.0" ?><svg height="284" id="svg4444" version="1.1" width="284" xmlns="http://www.w3.org/2000/svg" xmlns:cc="http://creativecommons.org/ns#" xmlns:dc="http://purl.org/dc/elements/1.1/" xmlns:rdf="http://www.w3.org/1999/02/22-rdf-syntax-ns#" xmlns:svg="http://www.w3.org/2000/svg" xmlns:xlink="http://www.w3.org/1999/xlink">
  <metadata id="metadata4454">
    <rdf:RDF>
      <cc:Work rdf:about="">
        <dc:format>image/svg+xml</dc:format>
        <dc:type rdf:resource="http://purl.org/dc/dcmitype/StillImage"/>
        <dc:title/>
        <cc:license rdf:resource="http://creativecommons.org/publicdomain/zero/1.0/"/>
      </cc:Work>
      <cc:License rdf:about="http://creativecommons.org/publicdomain/zero/1.0/">
        <cc:permits rdf:resource="http://creativecommons.org/ns#Reproduction"/>
        <cc:permits rdf:resource="http://creativecommons.org/ns#Distribution"/>
        <cc:permits rdf:resource="http://creativecommons.org/ns#DerivativeWorks"/>
      </cc:License>
    </rdf:RDF>
  </metadata>
  <defs id="defs4452">
    <mask id="mask5538" maskUnits="userSpaceOnUse">
      <g id="g5540" style="stroke:#fdffff;stroke-opacity:1" transform="matrix(14.130435,0,0,14.130435,1100.7609,-4.2391305e-5)">
        <circle cx="138" cy="138" id="circle5542" r="124" style="fill:none;stroke:#fdffff;stroke-width:28;stroke-opacity:1"/>
        <line id="line5544" style="stroke:#fdffff;stroke-width:22;stroke-opacity:1" x1="45" x2="231" y1="45" y2="231"/>
      </g>
    </mask>
  </defs><g id="g4230" transform="matrix(0.48064964,0,0,0.48064964,49.357474,93.379875)"/><path d="M 75.494141 95.394531 C 75.419711 95.398831 75.345689 95.413903 75.271484 95.439453 C 75.197284 95.465003 75.123291 95.500876 75.048828 95.546875 C 74.994858 95.580205 74.926904 95.642423 74.847656 95.728516 C 74.68916 95.900699 74.483895 96.171826 74.248047 96.517578 C 74.130123 96.690455 74.004366 96.880986 73.873047 97.087891 C 73.610409 97.5017 73.325651 97.977771 73.033203 98.490234 C 72.740759 99.002701 72.440944 99.552109 72.150391 100.11328 C 71.905889 100.58552 71.689562 101.0066 71.498047 101.39062 C 71.306531 101.77465 71.141054 102.122 70.996094 102.44141 C 70.851133 102.76082 70.725931 103.05366 70.621094 103.33203 C 70.411419 103.88878 70.277224 104.38773 70.189453 104.92188 C 70.057796 105.72311 70.033334 106.60365 70.03125 107.88477 C 70.030673 108.22874 70.028504 108.54819 70.021484 108.84375 C 70.014484 109.1393 70.002461 109.41083 69.988281 109.66211 C 69.931581 110.66725 69.813664 111.33486 69.613281 111.79688 C 69.563181 111.91237 69.508152 112.01554 69.447266 112.10742 C 69.386376 112.19932 69.320447 112.27916 69.248047 112.35156 C 69.163887 112.43576 69.086413 112.51051 69.013672 112.57422 C 68.868189 112.70165 68.742345 112.78874 68.617188 112.83594 C 68.554608 112.85954 68.491569 112.87305 68.427734 112.87695 C 68.300065 112.88495 68.165857 112.85436 68.007812 112.78516 C 67.928793 112.75056 67.842954 112.70581 67.75 112.65234 C 67.65705 112.59884 67.556423 112.53697 67.445312 112.46484 C 67.366512 112.41364 67.284467 112.3494 67.199219 112.27539 C 67.028724 112.12738 66.847836 111.93565 66.654297 111.70117 C 66.363988 111.34945 66.048661 110.9028 65.716797 110.375 C 65.495555 110.02313 65.266386 109.63481 65.03125 109.21289 C 64.560978 108.36905 64.066386 107.39322 63.5625 106.30859 C 63.058613 105.22396 62.54533 104.0307 62.037109 102.75781 C 61.615519 101.70189 61.153054 100.69216 60.748047 99.916016 C 60.444291 99.333908 60.172803 98.884848 59.974609 98.644531 C 59.908539 98.564421 59.85096 98.50503 59.802734 98.474609 C 59.734274 98.431419 59.665789 98.393869 59.597656 98.361328 C 59.529526 98.328788 59.462239 98.30333 59.394531 98.28125 C 59.326821 98.25916 59.258592 98.242289 59.191406 98.230469 C 58.855481 98.171339 58.526603 98.239067 58.210938 98.421875 C 58.084671 98.495015 57.961524 98.586157 57.839844 98.695312 C 57.353126 99.131931 56.90603 99.849844 56.523438 100.80078 C 56.332141 101.27625 56.156043 101.81099 56 102.39648 C 55.92198 102.68923 55.849305 102.99457 55.78125 103.3125 C 55.577086 104.26629 55.418992 105.32981 55.318359 106.48242 C 55.284819 106.86663 55.256828 107.26086 55.236328 107.66406 C 55.188408 108.60648 55.170199 109.42784 55.193359 110.16797 C 55.201059 110.41468 55.212789 110.6527 55.230469 110.88281 C 55.283519 111.57315 55.383601 112.19521 55.544922 112.78906 C 55.598692 112.98701 55.660646 113.1819 55.728516 113.375 C 55.932124 113.95432 56.199766 114.51879 56.548828 115.10742 C 56.665181 115.30363 56.7912 115.50195 56.925781 115.70508 C 57.464106 116.51757 58.152158 117.39686 59.023438 118.4375 C 59.537472 119.05146 60.006519 119.71054 60.345703 120.27734 C 60.430503 120.41904 60.506746 120.55552 60.574219 120.68359 C 60.776635 121.06778 60.894081 121.37994 60.894531 121.56445 C 60.895731 122.05648 60.112101 124.00854 59.152344 125.90234 C 58.948416 126.30474 58.767854 126.66636 58.607422 127.00195 C 58.44699 127.33754 58.307054 127.64706 58.183594 127.94531 C 57.936673 128.54182 57.757329 129.09288 57.619141 129.7168 C 57.342766 130.96464 57.23084 132.50367 57.076172 135.27539 C 57.005692 136.53849 56.937651 137.56308 56.859375 138.42188 C 56.781095 139.28069 56.693669 139.97437 56.580078 140.57422 C 56.523278 140.87415 56.459458 141.14967 56.388672 141.41211 C 56.317882 141.67456 56.238606 141.9229 56.150391 142.16602 C 56.062171 142.40915 55.964556 142.6467 55.855469 142.88867 C 55.746383 143.13065 55.627539 143.37773 55.494141 143.63672 C 55.318275 143.97818 55.142654 144.36909 54.970703 144.79883 C 54.798753 145.22857 54.629671 145.69577 54.466797 146.19141 C 54.303924 146.68706 54.14668 147.21083 53.998047 147.75 C 53.849413 148.28918 53.709309 148.84398 53.580078 149.4043 C 53.192383 151.08524 52.903357 152.81099 52.783203 154.2793 C 52.763173 154.52404 52.748611 154.76317 52.738281 154.99219 C 52.727951 155.22122 52.722656 155.43986 52.722656 155.65039 C 52.722656 155.88235 52.725435 156.09484 52.734375 156.29102 C 52.743275 156.48719 52.758697 156.66864 52.779297 156.83594 C 52.902934 157.83977 53.262125 158.38546 54.15625 159.2207 C 54.379986 159.4297 54.652994 159.63484 54.96875 159.83398 C 55.284507 160.03312 55.641546 160.22522 56.027344 160.4082 C 56.413142 160.59118 56.829812 160.76526 57.263672 160.92578 C 57.697532 161.0863 58.149431 161.23346 58.609375 161.36523 C 59.299292 161.56289 60.004616 161.72458 60.691406 161.83984 C 61.836056 162.03193 62.925879 162.09598 63.787109 161.98047 C 63.957345 161.95767 64.13231 161.92768 64.310547 161.89258 C 64.667023 161.82238 65.038297 161.72912 65.419922 161.61328 C 66.373984 161.32368 67.391139 160.89787 68.402344 160.375 C 68.806827 160.16585 69.211757 159.94133 69.609375 159.70312 C 70.404613 159.22673 71.175768 158.69702 71.888672 158.13281 C 72.245124 157.85071 72.588007 157.56063 72.910156 157.26367 C 74.371791 155.91631 75.331787 155.04668 76.039062 154.51367 C 76.392701 154.24717 76.681471 154.06546 76.939453 153.94922 C 77.025443 153.91052 77.109498 153.87822 77.189453 153.85352 C 77.349363 153.80412 77.498917 153.78225 77.648438 153.78125 C 77.723197 153.78077 77.797442 153.78482 77.873047 153.79492 C 77.948657 153.80492 78.024771 153.81949 78.103516 153.83789 C 78.261005 153.87469 78.429466 153.92813 78.613281 153.99219 C 78.790266 154.05389 78.973799 154.13434 79.166016 154.23242 C 79.358233 154.33052 79.558593 154.4445 79.763672 154.57617 C 79.968751 154.70784 80.17896 154.85512 80.394531 155.01758 C 81.256812 155.66743 82.193579 156.55343 83.128906 157.58398 C 83.362738 157.84163 83.595654 158.10838 83.828125 158.38281 C 84.060596 158.65726 84.292745 158.94008 84.521484 159.22852 C 84.750224 159.51696 84.976581 159.81169 85.199219 160.11133 C 86.53505 161.90917 87.739142 163.88391 88.556641 165.73242 L 89.720703 168.36133 L 139.43555 168.36133 L 168.68555 168.36133 L 156.3457 156.02148 L 155.89844 156.3457 L 158.16797 163.33008 L 152.22656 159.01367 L 146.28711 163.33008 L 148.55469 156.3457 L 142.61328 152.0293 L 149.95703 152.0293 L 150.54492 150.2207 L 136.91992 136.5957 L 133.23047 137.83203 L 125.30078 137.83594 C 124.12879 137.83647 123.09717 137.83627 122.17773 137.82227 C 121.71801 137.81527 121.28644 137.80552 120.87891 137.79102 C 119.24879 137.73302 118.00699 137.60243 116.91992 137.32031 C 116.64816 137.24981 116.38498 137.1711 116.12891 137.08008 C 115.61676 136.89804 115.12989 136.67216 114.63672 136.39258 C 114.39013 136.25279 114.14341 136.0997 113.89062 135.93164 C 113.63783 135.76357 113.37957 135.57979 113.11328 135.38086 C 112.84698 135.18193 112.57226 134.96676 112.28516 134.73438 C 111.99806 134.50197 111.69801 134.25284 111.38281 133.98438 C 110.75241 133.44746 110.05809 132.83538 109.27148 132.13867 C 107.92061 130.94218 106.70066 129.87142 105.58398 128.9082 C 104.4673 127.94497 103.45455 127.09077 102.51758 126.32617 C 100.17517 124.41464 98.309124 123.06872 96.494141 122.01953 C 95.768148 121.59986 95.049436 121.22712 94.3125 120.88477 C 92.470161 120.02891 90.508501 119.36093 88.001953 118.60938 C 87.413694 118.433 86.823373 118.25051 86.259766 118.07227 C 85.69616 117.89403 85.160601 117.71929 84.679688 117.55859 C 84.198775 117.39789 83.771819 117.25267 83.431641 117.12891 C 83.091464 117.00514 82.838666 116.90338 82.697266 116.83594 C 82.597736 116.78844 82.501233 116.73831 82.410156 116.68359 C 81.772617 116.30063 81.34057 115.73447 81.091797 114.91211 C 81.020717 114.67715 80.965523 114.42119 80.923828 114.14258 C 80.902988 114.00328 80.884794 113.8579 80.871094 113.70703 C 80.802604 112.95272 80.823378 112.05032 80.923828 110.97461 C 80.955938 110.63077 80.981187 110.31749 80.998047 110.01953 C 81.099257 108.23176 80.891849 107.07554 79.957031 104.23047 C 79.801229 103.75629 79.623902 103.23504 79.425781 102.65625 C 79.168433 101.90443 78.92744 101.21797 78.697266 100.59375 C 78.467094 99.969532 78.247907 99.407238 78.041016 98.904297 C 77.834115 98.401441 77.638673 97.958297 77.451172 97.570312 C 77.263671 97.182329 77.084111 96.849659 76.912109 96.570312 C 76.826109 96.430639 76.743012 96.305105 76.660156 96.191406 C 76.245875 95.622909 75.86824 95.372934 75.496094 95.394531 L 75.494141 95.394531 z M 102.24023 145.04492 L 104.50977 152.0293 L 111.85352 152.0293 L 105.91211 156.3457 L 108.18164 163.33008 L 102.24023 159.01367 L 96.298828 163.33008 L 98.568359 156.3457 L 92.626953 152.0293 L 99.970703 152.0293 L 102.24023 145.04492 z M 127.18555 145.04492 L 129.45508 152.0293 L 136.79883 152.0293 L 130.85742 156.3457 L 133.12695 163.33008 L 127.18555 159.01367 L 121.24414 163.33008 L 123.51367 156.3457 L 117.57227 152.0293 L 124.91602 152.0293 L 127.18555 145.04492 z " id="rect4483" style="fill:#031bbb;fill-opacity:1;stroke:none;stroke-width:36;stroke-linejoin:miter;stroke-miterlimit:4;stroke-dasharray:none;stroke-opacity:1"/><rect height="1.8190739" id="rect4487" style="fill:#031bbb;fill-opacity:1;stroke:none;stroke-width:36;stroke-linejoin:miter;stroke-miterlimit:4;stroke-dasharray:none;stroke-opacity:1" width="0.08873532" x="115.28782" y="143.24913"/><path d="M 172.35156 172.02734 L 139.59375 172.07227 C 113.06158 172.10918 91.223401 172.2229 91.064453 172.32617 C 90.692814 172.56763 91.127589 174.57049 93.716797 184.5625 C 94.807779 188.77272 95.815449 192.78246 95.957031 193.47266 C 96.449187 195.87189 96.781555 201.04562 96.828125 207.0293 C 96.874576 212.99786 96.869654 213.06411 96.201172 214.86523 C 95.830376 215.86429 95.345109 217.84116 95.123047 219.25781 C 94.900984 220.67444 94.612746 222.5116 94.482422 223.33984 C 94.30557 224.46377 93.979614 225.22762 93.195312 226.35156 C 89.022349 232.33156 86.960938 235.93955 86.960938 237.26953 C 86.960938 237.65237 87.169658 238.22322 87.423828 238.53711 C 87.854745 239.06927 88.133858 239.11884 91.564453 239.25977 C 96.900924 239.47901 102.43955 239.21476 102.93555 238.71875 C 103.15991 238.49439 103.41156 237.59597 103.52539 236.60742 C 103.63444 235.66037 103.80384 234.68688 103.90234 234.44531 C 104.18725 233.74636 105.29479 233.92375 106.64648 234.88477 C 107.32603 235.36791 108.06125 235.76367 108.28125 235.76367 C 109.15606 235.76367 117.40585 226.63499 117.74219 225.29492 C 117.9298 224.54739 117.43585 223.9776 115.44727 222.64648 C 112.91798 220.9534 112.35514 220.28992 111.78906 218.32812 C 111.50896 217.35744 110.87089 215.26323 110.36914 213.67578 C 109.52329 210.99965 109.45831 210.57178 109.47461 207.7793 C 109.49396 204.47236 109.91649 202.0209 111.06445 198.56836 C 112.27144 194.93831 115.23383 189.41472 116.27148 188.85938 C 116.53221 188.71983 119.44693 188.3668 122.74805 188.07617 C 129.62395 187.47084 131.48616 187.24233 135.12891 186.55273 C 138.66903 185.88255 141.78882 185.68677 143.125 186.05078 C 144.55238 186.43964 145.17137 187.32668 147.93555 192.96094 C 150.64529 198.48428 151.71484 201.25 151.71484 202.72656 C 151.71484 203.39722 151.36558 204.74187 150.83594 206.11328 C 150.3528 207.36428 149.95703 208.71523 149.95703 209.11719 C 149.95703 211.06508 148.66367 213.19487 141.86133 222.4375 C 139.36258 225.83265 136.94427 229.23101 136.48633 229.99023 C 134.50386 233.27696 136.11568 235.22489 141.17383 235.6543 C 143.18022 235.82463 146.64904 235.45115 147.39648 234.98438 C 148.01008 234.60117 149.4245 232.53815 151.08203 229.61133 C 152.81049 226.55925 154.36883 224.36861 156.22461 222.38086 C 159.03725 219.36818 158.99219 219.49189 158.99219 214.66602 L 158.99219 210.45508 L 160.6875 208.86719 C 165.59334 204.26864 168.83667 200.92072 169.28711 199.99023 C 170.01301 198.49072 169.90867 197.40028 168.75195 194.39844 C 168.18356 192.9234 167.54549 191.12949 167.33398 190.41211 C 166.98172 189.21731 166.98454 189.05376 167.36914 188.4668 C 168.0048 187.49666 168.82829 187.63477 169.9082 188.89258 C 170.4119 189.47924 171.99594 192.3378 173.42773 195.24609 L 176.03125 200.53516 L 176.20703 208.42383 L 176.38281 216.3125 L 175.49219 218.94727 C 174.3693 222.26837 174.36317 222.29396 174.05078 225.85742 L 173.79102 228.82422 L 170.32812 232.35938 C 166.50903 236.25808 166.06863 236.98844 166.73242 238.30859 C 167.23814 239.31437 169.02252 240.46058 170.54883 240.75977 C 173.31783 241.30256 177.45914 240.87864 179.34961 239.85938 C 180.77038 239.09337 181.63943 237.96346 184.58789 233.05664 L 186.89453 229.2207 L 187.12695 222.13867 C 187.38757 214.24707 187.6184 212.11393 188.31055 211.17773 C 190.27979 208.51414 190.26181 206.47921 188.19727 198.74414 C 186.46181 192.24195 185.83732 189.00851 185.67578 185.68359 C 185.66902 185.54443 185.66783 185.46586 185.66211 185.33789 L 172.35156 172.02734 z M 196.83398 196.50781 C 197.0474 197.00498 197.25311 197.51526 197.38672 197.92773 C 198.0025 199.82876 198.42479 200.03965 199.05859 198.73242 L 196.83398 196.50781 z " id="path4160" style="fill:#ff0000;fill-opacity:1;stroke:none;stroke-width:36;stroke-linejoin:miter;stroke-miterlimit:4;stroke-dasharray:none;stroke-opacity:1"/><path d="M 150.99805 55.578125 C 121.04839 55.766093 94.821025 62.020906 90.585938 90.722656 L 109.12305 109.25977 C 132.58387 109.22737 207.57765 109.14565 207.64648 109.14648 C 211.81386 109.19828 212.92796 108.18685 212.9082 101.06445 C 212.80496 63.789926 189.17118 55.338546 150.99805 55.578125 z M 142.26367 70.658203 L 151.79883 77.486328 L 161.26953 70.658203 L 157.7207 81.835938 L 167.14258 88.734375 L 155.41602 88.8125 L 151.76758 99.904297 L 148.06836 88.775391 L 136.39062 88.734375 L 145.83203 81.775391 L 142.26367 70.658203 z M 178 70.787109 L 187.5332 77.615234 L 197.00391 70.787109 L 193.45703 81.964844 L 202.87695 88.861328 L 191.15039 88.941406 L 187.50195 100.0332 L 183.80273 88.904297 L 172.125 88.861328 L 181.56641 81.904297 L 178 70.787109 z M 106.46484 70.791016 L 116 77.619141 L 125.4707 70.791016 L 121.92188 81.96875 L 131.34375 88.865234 L 119.61719 88.945312 L 115.96875 100.03711 L 112.26953 88.908203 L 100.5918 88.865234 L 110.0332 81.908203 L 106.46484 70.791016 z " id="path5223" style="fill:#1404bd;fill-opacity:1;fill-rule:evenodd;stroke:none"/><path d="M 180.28125 179.98047 C 180.83857 179.98222 181.6395 179.96761 182.11328 179.97461 C 188.51063 180.06641 188.39157 178.11652 188.46484 169.77344 C 188.49794 166.18031 188.46925 153.6649 188.33594 147.96094 C 188.30274 146.54409 189.04171 145.53944 190.00391 145.52344 C 193.92641 145.45924 194.7422 155.72655 195.71289 160.85742 C 199.31139 179.87836 207.63021 182.30452 215.2168 182.34961 C 224.72696 182.40921 233.78911 174.52438 233.82227 158.29102 C 233.82727 155.8468 233.30807 153.73633 231.51172 153.73633 C 223.49018 153.73632 228.17453 153.85392 223.94141 153.73633 C 221.69596 153.67213 219.70716 153.99263 220.15625 157.45703 C 220.60534 160.92143 220.80307 167.37869 216.43555 167.5293 C 214.57504 167.5935 213.09961 166.24612 213.09961 162.46094 C 213.09961 158.67576 212.8332 120.11625 212.71484 117.03906 C 212.65064 115.37101 212.58609 112.86748 209.25 112.93164 C 205.75422 113.00157 140.87539 113.00208 113.28516 112.98633 L 153.81445 153.51562 C 158.19908 153.6335 159.08408 153.87708 159.20703 158.90625 L 180.28125 179.98047 z " id="path5229" style="fill:#ff0000;fill-opacity:1;fill-rule:evenodd;stroke:none"/>
  <g id="gold" style="stroke:#000000;stroke-opacity:1" transform="translate(4,4)">
    <circle cx="138" cy="138" id="circle4458" r="124" style="fill:none;stroke:#000000;stroke-width:36;stroke-miterlimit:4;stroke-dasharray:none;stroke-opacity:1"/>
    <line id="line4456" style="stroke:#000000;stroke-width:30;stroke-miterlimit:4;stroke-dasharray:none;stroke-opacity:1" x1="45" x2="231" y1="45" y2="231"/>
  </g>
  <g id="g5472" mask="url(#mask5538)" transform="matrix(0.07076923,0,0,0.07076923,-73.9,4.000003)">
    <rect height="3900" id="rect5435" style="fill:#b22234" width="7410" x="0" y="0"/>
    <path d="m 0,450 7410,0 m 0,600 -7410,0 m 0,600 7410,0 m 0,600 -7410,0 m 0,600 7410,0 m 0,600 -7410,0" id="path5437" style="stroke:#ffffff;stroke-width:300"/>
    <rect height="2100" id="rect5439" style="fill:#3c3b6e" width="2964" x="0" y="0"/>
    <g id="g5441" style="fill:#ffffff">
      <g id="s18">
        <g id="s9">
          <g id="s5">
            <g id="s4">
              <path d="m 247,90 70.53423,217.08204 -184.66101,-134.16408 228.25356,0 -184.66101,134.16408 z" id="s"/>
              <use height="100%" id="use5448" width="100%" x="0" xlink:href="#s" y="420"/>
              <use height="100%" id="use5450" width="100%" x="0" xlink:href="#s" y="840"/>
              <use height="100%" id="use5452" width="100%" x="0" xlink:href="#s" y="1260"/>
            </g>
            <use height="100%" id="use5454" width="100%" x="0" xlink:href="#s" y="1680"/>
          </g>
          <use height="100%" id="use5456" width="100%" x="247" xlink:href="#s4" y="210"/>
        </g>
        <use height="100%" id="use5458" width="100%" x="494" xlink:href="#s9" y="0"/>
      </g>
      <use height="100%" id="use5460" width="100%" x="988" xlink:href="#s18" y="0"/>
      <use height="100%" id="use5462" width="100%" x="1976" xlink:href="#s9" y="0"/>
      <use height="100%" id="use5464" width="100%" x="2470" xlink:href="#s5" y="0"/>
    </g>
  </g>
</svg>