<?xml version="1.0" ?><svg height="284" id="svg4444" version="1.1" width="284" xmlns="http://www.w3.org/2000/svg" xmlns:cc="http://creativecommons.org/ns#" xmlns:dc="http://purl.org/dc/elements/1.1/" xmlns:rdf="http://www.w3.org/1999/02/22-rdf-syntax-ns#" xmlns:svg="http://www.w3.org/2000/svg">
  <metadata id="metadata4454">
    <rdf:RDF>
      <cc:Work rdf:about="">
        <dc:format>image/svg+xml</dc:format>
        <dc:type rdf:resource="http://purl.org/dc/dcmitype/StillImage"/>
        <dc:title/>
        <cc:license rdf:resource="http://creativecommons.org/publicdomain/zero/1.0/"/>
      </cc:Work>
      <cc:License rdf:about="http://creativecommons.org/publicdomain/zero/1.0/">
        <cc:permits rdf:resource="http://creativecommons.org/ns#Reproduction"/>
        <cc:permits rdf:resource="http://creativecommons.org/ns#Distribution"/>
        <cc:permits rdf:resource="http://creativecommons.org/ns#DerivativeWorks"/>
      </cc:License>
    </rdf:RDF>
  </metadata>
  <defs id="defs4452">
    <mask id="mask5538" maskUnits="userSpaceOnUse">
      <g id="g5540" style="stroke:#fdffff;stroke-opacity:1" transform="matrix(14.130435,0,0,14.130435,1100.7609,-4.2391305e-5)">
        <circle cx="138" cy="138" id="circle5542" r="124" style="fill:none;stroke:#fdffff;stroke-width:28;stroke-opacity:1"/>
        <line id="line5544" style="stroke:#fdffff;stroke-width:22;stroke-opacity:1" x1="45" x2="231" y1="45" y2="231"/>
      </g>
    </mask>
    <mask id="mask4259" maskUnits="userSpaceOnUse">
      <path d="m -192.159,-20.281496 c -82.66247,0 -150,67.337532 -150,149.999996 0,82.66247 67.33753,150 150,150 82.66247,0 150,-67.33753 150,-150 0,-82.662464 -67.33753,-149.999996 -150,-149.999996 z m 0,30.434783 c 66.21429,0 119.565217,53.350927 119.565217,119.565213 0,28.78522 -10.0865,55.13567 -26.925521,75.73243 L -267.89142,37.078813 c 20.59675,-16.83903 46.9472,-26.925526 75.73242,-26.925526 z m -92.63969,43.832796 168.37211,168.372117 c -20.59676,16.83902 -46.9472,26.92552 -75.73242,26.92552 -66.21429,0 -119.56522,-53.35092 -119.56522,-119.56522 0,-28.78521 10.0865,-55.135661 26.92553,-75.732417 z" id="path4261" style="color:#000000;font-style:normal;font-variant:normal;font-weight:normal;font-stretch:normal;font-size:medium;line-height:normal;font-family:sans-serif;text-indent:0;text-align:start;text-decoration:none;text-decoration-line:none;text-decoration-style:solid;text-decoration-color:#000000;letter-spacing:normal;word-spacing:normal;text-transform:none;direction:ltr;block-progression:tb;writing-mode:lr-tb;baseline-shift:baseline;text-anchor:start;white-space:normal;clip-rule:nonzero;display:inline;overflow:visible;visibility:visible;opacity:1;isolation:auto;mix-blend-mode:normal;color-interpolation:sRGB;color-interpolation-filters:linearRGB;solid-color:#000000;solid-opacity:1;fill:#ffffff;fill-opacity:1;fill-rule:nonzero;stroke:none;stroke-width:28;stroke-linecap:butt;stroke-linejoin:miter;stroke-miterlimit:4;stroke-dasharray:none;stroke-dashoffset:0;stroke-opacity:1;color-rendering:auto;image-rendering:auto;shape-rendering:auto;text-rendering:auto;enable-background:accumulate"/>
    </mask>
  </defs><path d="m 149.48922,40.851581 -55.64999,55.649998 89.03999,89.040001 -55.64998,55.65 m -89.040022,-111.30001 55.650012,55.65001 89.03999,-89.040001 55.65,55.650001" id="path4505" style="fill:none;stroke:#000000;stroke-width:31.48039818"/>
  <g id="gold" style="stroke:#000000;stroke-opacity:1" transform="translate(4,4)">
    <circle cx="138" cy="138" id="circle4458" r="124" style="fill:none;stroke:#000000;stroke-width:36;stroke-miterlimit:4;stroke-dasharray:none;stroke-opacity:1"/>
    <line id="line4456" style="stroke:#000000;stroke-width:30;stroke-miterlimit:4;stroke-dasharray:none;stroke-opacity:1" x1="45" x2="231" y1="45" y2="231"/>
  </g>
  <g id="g4210" mask="url(#mask4259)" transform="matrix(0.92,0,0,0.92,318.78628,22.658976)">
    <path d="m -417.159,-20.281496 450.000003,0 0,299.999996 -450.000003,0 z" id="rect4194" style="stroke:none;stroke-opacity:1"/>
    <path d="M 450,0 0,0 0,300 Z" id="polygon4196" style="fill:#cc1009;fill-opacity:1;stroke:none;stroke-opacity:1" transform="translate(-417.15898,-20.281496)"/>
  </g>
</svg>