<?xml version="1.0" ?><svg height="284" id="svg4444" version="1.1" width="284" xmlns="http://www.w3.org/2000/svg" xmlns:cc="http://creativecommons.org/ns#" xmlns:dc="http://purl.org/dc/elements/1.1/" xmlns:rdf="http://www.w3.org/1999/02/22-rdf-syntax-ns#" xmlns:svg="http://www.w3.org/2000/svg">
  <metadata id="metadata4454">
    <rdf:RDF>
      <cc:Work rdf:about="">
        <dc:format>image/svg+xml</dc:format>
        <dc:type rdf:resource="http://purl.org/dc/dcmitype/StillImage"/>
        <dc:title/>
        <cc:license rdf:resource="http://creativecommons.org/publicdomain/zero/1.0/"/>
      </cc:Work>
      <cc:License rdf:about="http://creativecommons.org/publicdomain/zero/1.0/">
        <cc:permits rdf:resource="http://creativecommons.org/ns#Reproduction"/>
        <cc:permits rdf:resource="http://creativecommons.org/ns#Distribution"/>
        <cc:permits rdf:resource="http://creativecommons.org/ns#DerivativeWorks"/>
      </cc:License>
    </rdf:RDF>
  </metadata>
  <defs id="defs4452">
    <mask id="mask5538" maskUnits="userSpaceOnUse">
      <g id="g5540" style="stroke:#fdffff;stroke-opacity:1" transform="matrix(14.130435,0,0,14.130435,1100.7609,-4.2391305e-5)">
        <circle cx="138" cy="138" id="circle5542" r="124" style="fill:none;stroke:#fdffff;stroke-width:28;stroke-opacity:1"/>
        <line id="line5544" style="stroke:#fdffff;stroke-width:22;stroke-opacity:1" x1="45" x2="231" y1="45" y2="231"/>
      </g>
    </mask>
  </defs><path d="M 84.548828 83.533203 L 71.580078 96.501953 L 116.09961 141.02148 L 93.839844 163.28125 L 49.318359 118.76172 L 27.058594 141.02148 L 93.839844 207.80078 L 138.35938 163.28125 L 160.62109 185.54297 L 116.09961 230.0625 L 138.35938 252.32227 L 195.84766 194.83203 L 84.548828 83.533203 z " id="path6940" style="color:#000000;font-style:normal;font-variant:normal;font-weight:normal;font-stretch:normal;font-size:medium;line-height:normal;font-family:sans-serif;text-indent:0;text-align:start;text-decoration:none;text-decoration-line:none;text-decoration-style:solid;text-decoration-color:#000000;letter-spacing:normal;word-spacing:normal;text-transform:none;direction:ltr;block-progression:tb;writing-mode:lr-tb;baseline-shift:baseline;text-anchor:start;white-space:normal;clip-rule:nonzero;display:inline;overflow:visible;visibility:visible;opacity:1;isolation:auto;mix-blend-mode:normal;color-interpolation:sRGB;color-interpolation-filters:linearRGB;solid-color:#000000;solid-opacity:1;fill:#000000;fill-opacity:1;fill-rule:nonzero;stroke:none;stroke-width:31.48039818;stroke-linecap:butt;stroke-linejoin:miter;stroke-miterlimit:4;stroke-dasharray:none;stroke-dashoffset:0;stroke-opacity:1;color-rendering:auto;image-rendering:auto;shape-rendering:auto;text-rendering:auto;enable-background:accumulate"/><path d="M 85.3125 84.294922 L 107.9375 106.91992 L 110.56641 104.27344 C 133.66413 127.71674 153.58473 147.93654 173.91992 168.57812 C 172.81389 168.96209 171.64761 169.18431 170.51367 169.49805 L 190.24219 189.22461 C 191.15265 188.77479 192.12369 188.44892 193.01367 187.96094 C 200.99109 196.05821 208.74729 203.93025 217.29492 212.60547 C 227.69662 223.39065 245.8109 208.72381 234.21094 196.27148 C 226.08456 188.35182 218.54549 180.95074 211.2168 173.73242 C 242.02193 140.37029 241.79902 76.613616 151.96875 24.03125 C 212.33475 91.098671 212.89896 134.65095 193.33984 156.05859 C 171.98532 134.90038 151.45226 114.4154 125.64062 89.101562 L 150.16211 64.435547 L 110.83398 59.986328 L 85.3125 84.294922 z " id="hammer_head" style="fill:#cc1009;fill-rule:evenodd"/>
  <g id="gold" style="stroke:#fdd400;stroke-opacity:1" transform="translate(4,4)">
    <circle cx="138" cy="138" id="circle4458" r="124" style="fill:none;stroke:#fdd400;stroke-width:36;stroke-miterlimit:4;stroke-dasharray:none;stroke-opacity:1"/>
    <line id="line4456" style="stroke:#fdd400;stroke-width:30;stroke-miterlimit:4;stroke-dasharray:none;stroke-opacity:1" x1="45" x2="231" y1="45" y2="231"/>
  </g>
  <g id="g5941" style="stroke:#000000;stroke-opacity:1" transform="translate(4,4)">
    <circle cx="138" cy="138" id="circle5931" r="124" style="fill:none;stroke:#000000;stroke-width:28;stroke-opacity:1"/>
    <line id="line5933" style="stroke:#000000;stroke-width:22;stroke-opacity:1" x1="45" x2="231" y1="45" y2="231"/>
  </g>
</svg>