<?xml version="1.0" ?><svg height="284" id="svg4444" version="1.1" width="284" xmlns="http://www.w3.org/2000/svg" xmlns:cc="http://creativecommons.org/ns#" xmlns:dc="http://purl.org/dc/elements/1.1/" xmlns:rdf="http://www.w3.org/1999/02/22-rdf-syntax-ns#" xmlns:svg="http://www.w3.org/2000/svg">
  <metadata id="metadata4454">
    <rdf:RDF>
      <cc:Work rdf:about="">
        <dc:format>image/svg+xml</dc:format>
        <dc:type rdf:resource="http://purl.org/dc/dcmitype/StillImage"/>
        <dc:title/>
        <cc:license rdf:resource="http://creativecommons.org/publicdomain/zero/1.0/"/>
      </cc:Work>
      <cc:License rdf:about="http://creativecommons.org/publicdomain/zero/1.0/">
        <cc:permits rdf:resource="http://creativecommons.org/ns#Reproduction"/>
        <cc:permits rdf:resource="http://creativecommons.org/ns#Distribution"/>
        <cc:permits rdf:resource="http://creativecommons.org/ns#DerivativeWorks"/>
      </cc:License>
    </rdf:RDF>
  </metadata>
  <defs id="defs4452">
    <mask id="mask5538" maskUnits="userSpaceOnUse">
      <g id="g5540" style="stroke:#fdffff;stroke-opacity:1" transform="matrix(14.130435,0,0,14.130435,1100.7609,-4.2391305e-5)">
        <circle cx="138" cy="138" id="circle5542" r="124" style="fill:none;stroke:#fdffff;stroke-width:28;stroke-opacity:1"/>
        <line id="line5544" style="stroke:#fdffff;stroke-width:22;stroke-opacity:1" x1="45" x2="231" y1="45" y2="231"/>
      </g>
    </mask>
  </defs><path clip-path="url(#clipPath3826)" d="m 1150.5763,2416.248 c -52.3856,-49.5155 -80.1451,-111.559 -126.5075,-158.8007 -20.1171,-20.4987 -47.7551,-34.3237 -92.4925,-38.1419 -336.45745,-28.7156 -582.79599,-22.8403 -715.6182,-284.0201 96.5483,55.1772 470.13801,-8.5962 438.9457,-103.2849 -267.03752,42.2384 -631.737907,-135.4813 -714.067203,-345.6786 140.547012,54.8102 312.868253,75.2737 424.186003,-31.3214 862.8012,0 1725.6023,0 2588.4035,0 76.6407,111.4162 179.1191,165.8375 181.2377,280.5995 1.2918,69.9738 -34.5862,151.6477 -79.7075,185.7824 -162.5486,122.9696 -425.1602,117.4253 -583.0848,72.9895 -78.2276,224.4261 188.7575,367.3558 144.5212,421.8762 0,0 -250.1216,-0.1684 -388.1824,0 -70.2744,-69.312 -89.7849,-189.8624 -177.7509,-231.8416 -136.23,-65.0117 -532.4865,-70.7376 -571.0825,44.1795 -26.325,78.381 148.2336,140.448 105.6994,187.6621 z" id="path2987" style="fill:#ff0000;fill-opacity:1" transform="matrix(0.05971877,0,0,0.05971877,42.425559,65.335434)"/><path clip-path="none" d="M 181.32031 67.896484 C 165.97727 70.384727 149.01897 79.169783 147.79492 99.3125 C 135.1856 95.439708 131.48794 82.359885 138.57812 68.324219 C 124.86007 72.099442 112.19876 88.334138 115.07031 102.30664 C 101.60528 99.919401 95.176593 89.296682 98.152344 78.648438 C 87.493535 85.213059 84.532086 98.284904 89.212891 111.60352 C 78.465405 110.27825 67.346739 107.48343 63.292969 95.03125 C 56.350572 103.9214 67.401937 125.96314 76.763672 136.47852 C 67.231147 137.4384 57.60757 130.47479 48.34375 125.22852 C 46.810901 132.54918 56.168003 142.85082 63.746094 147.25586 C 115.29842 147.25681 164.58244 147.25686 216.13477 147.25781 C 206.93868 137.91925 216.08283 118.45399 229.32031 112.82031 C 220.97762 106.16116 205.0495 108.35506 201.69727 113.99805 C 198.02936 99.834254 200.92982 88.002867 211.01172 82.408203 C 190.67168 75.809996 179.81833 92.398826 177.80078 104.92773 C 168.39389 89.296657 175.83449 74.63186 181.32031 67.896484 z M 180.57617 112.52344 L 182.35156 113 L 181.92773 114.58203 C 183.52451 115.11337 184.86652 115.89884 185.73242 117.10547 C 186.73452 118.50191 186.95582 120.36502 186.38672 122.35352 L 184.02734 121.67969 C 184.4538 120.18961 184.27499 119.28035 183.74023 118.53516 C 183.29687 117.91732 182.47291 117.36929 181.29297 116.95117 L 179.16211 124.90234 C 180.33536 125.42716 181.60105 126.1063 182.64062 127.15039 C 183.85078 128.3658 184.68436 130.17823 184.3418 132.31836 L 184.33789 132.3457 L 184.33203 132.37109 C 183.87356 134.60786 182.82151 136.39957 181.10156 137.32812 C 179.609 138.13393 177.78453 138.23938 175.70703 137.79688 L 174.89258 140.83594 L 173.11719 140.36133 L 173.9375 137.29688 C 172.01588 136.61522 170.54278 135.63839 169.68555 134.20312 C 168.71486 132.57793 168.69315 130.55371 169.35742 128.33398 L 171.70703 129.03711 C 171.15782 130.87236 171.26083 132.05763 171.79102 132.94531 C 172.23698 133.69197 173.13613 134.35323 174.58008 134.89844 L 176.85547 126.40625 C 175.75947 125.69081 174.56862 124.96883 173.61523 123.85352 C 172.50221 122.55137 171.93387 120.61065 172.56641 118.25 C 173.01782 116.5653 174.05495 115.15031 175.5918 114.44141 C 176.36022 114.08695 177.2195 113.90843 178.15625 113.89453 L 178.1582 113.89453 C 178.78881 113.88514 179.45671 113.95805 180.1543 114.0957 L 180.57617 112.52344 z M 110.1875 112.6875 L 111.96484 113.16211 L 111.54102 114.74609 C 113.13704 115.27735 114.48034 116.06169 115.3457 117.26758 C 116.3478 118.66402 116.56716 120.52908 115.99805 122.51758 L 113.64062 121.8418 C 114.0671 120.35172 113.88632 119.44246 113.35156 118.69727 C 112.90841 118.07973 112.08527 117.53133 110.90625 117.11328 L 108.77539 125.06641 C 109.94851 125.59114 111.21473 126.27077 112.25391 127.31445 C 113.46405 128.52987 114.29569 130.34229 113.95312 132.48242 L 113.94922 132.50977 L 113.94531 132.53516 C 113.48685 134.77192 112.43284 136.56363 110.71289 137.49219 C 109.22078 138.29773 107.39702 138.40141 105.32031 137.95898 L 104.50586 141 L 102.72852 140.52344 L 103.54883 137.45898 C 101.62723 136.77697 100.15411 135.80049 99.296875 134.36523 C 98.32619 132.74004 98.304481 130.71777 98.96875 128.49805 L 101.31836 129.20117 C 100.76917 131.03643 100.87216 132.21974 101.40234 133.10742 C 101.84855 133.85449 102.74654 134.5168 104.19141 135.0625 L 106.46875 126.56836 C 105.37239 125.85305 104.18034 125.13335 103.22656 124.01758 C 102.11353 122.71544 101.5452 120.77276 102.17773 118.41211 C 102.62915 116.72741 103.66627 115.31437 105.20312 114.60547 C 105.97156 114.25102 106.83082 114.07054 107.76758 114.05664 C 108.39819 114.04725 109.06824 114.11971 109.76562 114.25781 L 110.1875 112.6875 z M 145.62695 112.6875 L 147.40234 113.16211 L 146.97852 114.74609 C 148.57494 115.27734 149.91752 116.06124 150.7832 117.26758 C 151.78531 118.66402 152.0066 120.52908 151.4375 122.51758 L 149.07812 121.8418 C 149.50459 120.35172 149.32578 119.44246 148.79102 118.69727 C 148.34765 118.07943 147.5237 117.5314 146.34375 117.11328 L 144.21289 125.06641 C 145.38652 125.59115 146.65372 126.27029 147.69336 127.31445 C 148.90351 128.52987 149.73514 130.34229 149.39258 132.48242 L 149.38867 132.50977 L 149.38281 132.53516 C 148.92435 134.77192 147.87229 136.56363 146.15234 137.49219 C 144.65977 138.29798 142.83531 138.40188 140.75781 137.95898 L 139.94336 141 L 138.16797 140.52344 L 138.98828 137.45898 C 137.06668 136.77697 135.59356 135.80049 134.73633 134.36523 C 133.76564 132.74004 133.74393 130.71777 134.4082 128.49805 L 136.75781 129.20117 C 136.20861 131.03643 136.31161 132.21974 136.8418 133.10742 C 137.28798 133.85446 138.18612 134.51695 139.63086 135.0625 L 141.9082 126.56836 C 140.81185 125.85305 139.61978 125.13335 138.66602 124.01758 C 137.55299 122.71544 136.98465 120.77276 137.61719 118.41211 C 138.06861 116.72741 139.10573 115.31437 140.64258 114.60547 C 141.411 114.25102 142.27028 114.07054 143.20703 114.05664 C 143.83764 114.04725 144.50768 114.11971 145.20508 114.25781 L 145.62695 112.6875 z M 178.21094 116.34766 C 177.56468 116.35577 177.0368 116.47531 176.61914 116.66797 C 175.78383 117.05328 175.2459 117.72653 174.93555 118.88477 C 174.45718 120.67006 174.78115 121.44166 175.48047 122.25977 C 175.94475 122.80291 176.70169 123.33665 177.5293 123.89258 L 179.51758 116.47852 C 179.04264 116.39485 178.59792 116.3428 178.21094 116.34766 z M 107.82227 116.51172 C 107.17601 116.51983 106.64812 116.63938 106.23047 116.83203 C 105.39515 117.21734 104.8572 117.88863 104.54688 119.04688 C 104.06851 120.83216 104.39248 121.60573 105.0918 122.42383 C 105.55623 122.96714 106.31466 123.49765 107.14258 124.05273 L 109.12695 116.64258 C 108.65272 116.55914 108.20876 116.50687 107.82227 116.51172 z M 143.26172 116.51172 C 142.61546 116.51983 142.08758 116.63938 141.66992 116.83203 C 140.83461 117.21734 140.29668 117.88863 139.98633 119.04688 C 139.50796 120.83216 139.83193 121.60573 140.53125 122.42383 C 140.99594 122.96745 141.75402 123.49897 142.58203 124.05469 L 144.56641 116.64258 C 144.09217 116.55914 143.64822 116.50687 143.26172 116.51172 z M 178.52148 127.29492 L 176.34766 135.40234 C 177.95348 135.72 179.13666 135.60122 179.93555 135.16992 C 180.88036 134.65984 181.54829 133.68004 181.91797 131.91016 C 182.1312 130.53518 181.71489 129.69497 180.9043 128.88086 C 180.28987 128.26376 179.42252 127.73313 178.52148 127.29492 z M 143.57227 127.45898 L 141.40039 135.56641 C 143.00519 135.88356 144.18788 135.76504 144.98633 135.33398 C 145.93114 134.82391 146.59907 133.84408 146.96875 132.07422 C 147.18198 130.69924 146.76567 129.85904 145.95508 129.04492 C 145.34065 128.42782 144.4733 127.8972 143.57227 127.45898 z M 108.13477 127.46094 L 105.96094 135.56641 C 107.56599 135.88369 108.74817 135.76519 109.54688 135.33398 C 110.49169 134.82391 111.15961 133.84408 111.5293 132.07422 C 111.74252 130.69924 111.32623 129.85904 110.51562 129.04492 C 109.90175 128.42836 109.03496 127.89893 108.13477 127.46094 z " id="path2987-4" style="fill:#031bbb;fill-opacity:1"/>
  <g id="gold" style="stroke:#fdd400;stroke-opacity:1" transform="translate(4,4)">
    <circle cx="138" cy="138" id="circle4458" r="124" style="fill:none;stroke:#fdd400;stroke-width:36;stroke-miterlimit:4;stroke-dasharray:none;stroke-opacity:1"/>
    <line id="line4456" style="stroke:#fdd400;stroke-width:30;stroke-miterlimit:4;stroke-dasharray:none;stroke-opacity:1" x1="45" x2="231" y1="45" y2="231"/>
  </g>
  <g id="g5941" style="stroke:#cc1009;stroke-opacity:1" transform="translate(4,4)">
    <circle cx="138" cy="138" id="circle5931" r="124" style="fill:none;stroke:#cc1009;stroke-width:28;stroke-opacity:1"/>
    <line id="line5933" style="stroke:#cc1009;stroke-width:22;stroke-opacity:1" x1="45" x2="231" y1="45" y2="231"/>
  </g>
</svg>