<?xml version="1.0" ?><svg height="284" id="svg4444" version="1.1" width="284" xmlns="http://www.w3.org/2000/svg" xmlns:cc="http://creativecommons.org/ns#" xmlns:dc="http://purl.org/dc/elements/1.1/" xmlns:rdf="http://www.w3.org/1999/02/22-rdf-syntax-ns#" xmlns:svg="http://www.w3.org/2000/svg" xmlns:xlink="http://www.w3.org/1999/xlink">
  <metadata id="metadata4454">
    <rdf:RDF>
      <cc:Work rdf:about="">
        <dc:format>image/svg+xml</dc:format>
        <dc:type rdf:resource="http://purl.org/dc/dcmitype/StillImage"/>
        <dc:title/>
        <cc:license rdf:resource="http://creativecommons.org/publicdomain/zero/1.0/"/>
      </cc:Work>
      <cc:License rdf:about="http://creativecommons.org/publicdomain/zero/1.0/">
        <cc:permits rdf:resource="http://creativecommons.org/ns#Reproduction"/>
        <cc:permits rdf:resource="http://creativecommons.org/ns#Distribution"/>
        <cc:permits rdf:resource="http://creativecommons.org/ns#DerivativeWorks"/>
      </cc:License>
    </rdf:RDF>
  </metadata>
  <defs id="defs4452">
    <mask id="mask5538" maskUnits="userSpaceOnUse">
      <g id="g5540" style="stroke:#fdffff;stroke-opacity:1" transform="matrix(14.130435,0,0,14.130435,1100.7609,-4.2391305e-5)">
        <circle cx="138" cy="138" id="circle5542" r="124" style="fill:none;stroke:#fdffff;stroke-width:28;stroke-opacity:1"/>
        <line id="line5544" style="stroke:#fdffff;stroke-width:22;stroke-opacity:1" x1="45" x2="231" y1="45" y2="231"/>
      </g>
    </mask>
  </defs><g id="g4824" transform="matrix(-0.52698663,0,0,0.52698663,223.96198,62.519763)">
    <g id="g4230"/>
    <path d="m 54.378906,4.1914062 c -0.154851,0.00899 -0.31046,0.040587 -0.464844,0.09375 -0.154381,0.053163 -0.307967,0.1269605 -0.46289,0.2226563 -0.112278,0.069354 -0.253092,0.1978383 -0.417969,0.3769531 -0.329753,0.3582296 -0.75736,0.9232333 -1.248047,1.6425782 -0.245343,0.3596722 -0.506085,0.7570312 -0.779297,1.1875 -0.546423,0.8609374 -1.139603,1.8517789 -1.748047,2.9179682 -0.608435,1.066196 -1.231436,2.207462 -1.835937,3.375 -0.50869,0.982493 -0.958971,1.861183 -1.357422,2.660157 -0.398451,0.798974 -0.745282,1.519062 -1.046875,2.183593 -0.301593,0.664533 -0.559227,1.274352 -0.777344,1.853516 -0.436232,1.158329 -0.717781,2.195326 -0.90039,3.306641 -0.273915,1.666971 -0.32379,3.500625 -0.328125,6.166015 -0.0012,0.715624 -0.0069,1.379226 -0.02148,1.994141 -0.01458,0.614915 -0.03691,1.182276 -0.06641,1.705078 -0.117972,2.091207 -0.362396,3.480189 -0.779297,4.441406 -0.104225,0.240305 -0.219029,0.453363 -0.345703,0.644532 -0.126674,0.191168 -0.265386,0.359137 -0.416016,0.509765 -0.175097,0.175097 -0.334988,0.330335 -0.486328,0.462891 -0.302679,0.265112 -0.567733,0.444773 -0.828125,0.542969 -0.130195,0.0491 -0.257815,0.07776 -0.390625,0.08594 -0.265618,0.01636 -0.546185,-0.0493 -0.875,-0.193359 -0.164407,-0.07203 -0.341764,-0.164071 -0.535156,-0.275391 -0.193391,-0.11132 -0.403599,-0.240554 -0.634766,-0.390625 -0.163945,-0.106434 -0.33436,-0.238612 -0.511719,-0.392581 -0.354718,-0.307937 -0.734058,-0.707476 -1.136719,-1.195312 -0.603992,-0.731758 -1.258771,-1.659709 -1.949219,-2.757813 -0.460298,-0.732069 -0.936577,-1.540159 -1.425781,-2.417969 -0.978409,-1.75562 -2.006343,-3.788321 -3.054687,-6.044922 -1.048346,-2.256601 -2.116468,-4.736495 -3.173829,-7.384765 -0.877127,-2.196859 -1.839015,-4.297327 -2.68164,-5.91211 -0.631969,-1.211087 -1.197029,-2.148452 -1.609375,-2.648437 -0.137449,-0.166662 -0.259041,-0.286319 -0.359375,-0.34961 -0.142439,-0.08985 -0.284029,-0.168629 -0.425781,-0.236328 -0.141754,-0.0677 -0.282963,-0.12397 -0.423829,-0.169922 -0.140866,-0.04595 -0.282095,-0.08086 -0.421875,-0.105468 -0.698898,-0.12303 -1.382315,0.018 -2.039062,0.398437 -0.262699,0.152176 -0.520281,0.343214 -0.773438,0.570313 -1.012625,0.908394 -1.942291,2.402412 -2.738281,4.380859 -0.397995,0.989224 -0.763241,2.100238 -1.087891,3.318359 -0.162319,0.609062 -0.315442,1.244793 -0.457031,1.90625 -0.424767,1.984376 -0.751568,4.197674 -0.960937,6.595704 -0.06979,0.799343 -0.127263,1.618162 -0.169922,2.457031 -0.09971,1.960714 -0.139978,3.671085 -0.0918,5.210937 0.01606,0.513285 0.04329,1.007579 0.08008,1.486328 0.110376,1.436254 0.318666,2.731289 0.654297,3.966797 0.111877,0.411836 0.237703,0.81699 0.378906,1.21875 0.423611,1.205281 0.982755,2.37886 1.708985,3.603516 0.242076,0.408219 0.503204,0.82154 0.783203,1.244141 1.119995,1.690401 2.552523,3.520462 4.365234,5.685546 1.069458,1.277353 2.042368,2.646937 2.748047,3.826172 0.17642,0.294809 0.336185,0.579264 0.476563,0.845704 0.42113,0.799317 0.667031,1.450108 0.667968,1.833984 0.0025,1.023671 -1.62821,5.085293 -3.625,9.02539 -0.424277,0.837193 -0.800984,1.588904 -1.134765,2.28711 -0.333782,0.698206 -0.625952,1.342379 -0.882813,1.96289 -0.513723,1.24104 -0.886326,2.38747 -1.173828,3.685547 -0.575004,2.596155 -0.807116,5.797845 -1.128906,11.564453 -0.146644,2.627912 -0.286365,4.760119 -0.449219,6.546876 -0.162854,1.786754 -0.347656,3.228558 -0.583984,4.476562 -0.118165,0.624002 -0.249214,1.198126 -0.396485,1.744141 -0.14727,0.546019 -0.310606,1.062529 -0.49414,1.568359 -0.183535,0.50583 -0.388278,1.00242 -0.615235,1.50586 -0.226956,0.50344 -0.476369,1.01388 -0.753906,1.55273 -0.365891,0.71041 -0.730145,1.52388 -1.087891,2.41797 -0.357746,0.89409 -0.709967,1.86919 -1.048828,2.90039 -0.33886,1.03121 -0.6653745,2.11848 -0.9746091,3.24024 -0.3092347,1.12176 -0.6002717,2.27761 -0.8691407,3.44336 -0.8066047,3.49723 -1.4082201,7.08771 -1.6582031,10.14257 -0.041664,0.50917 -0.072247,1.00399 -0.09375,1.48047 C 7.0116999,128.66008 7,129.11864 7,129.55664 c 0,0.4826 0.00879,0.92388 0.027344,1.33203 0.018549,0.40815 0.046972,0.78278 0.089844,1.13086 0.2572283,2.08848 1.0049924,3.22516 2.8652344,4.96289 0.4654876,0.43483 1.0364226,0.86303 1.6933596,1.27735 0.656937,0.41431 1.398513,0.81462 2.201172,1.19531 0.802659,0.38069 1.667659,0.7422 2.570313,1.07617 0.902653,0.33397 1.843858,0.63991 2.800781,0.91406 1.435383,0.41123 2.905106,0.74849 4.333984,0.98828 2.381464,0.39965 4.647648,0.53135 6.439453,0.29102 0.354179,-0.0475 0.717064,-0.10857 1.087891,-0.18164 0.741654,-0.14614 1.514616,-0.34298 2.308594,-0.58399 1.984943,-0.60252 4.103201,-1.48637 6.207031,-2.57421 0.841532,-0.43514 1.68056,-0.90287 2.507812,-1.39844 1.654506,-0.99115 3.260932,-2.09179 4.744141,-3.26563 0.741605,-0.58692 1.45281,-1.19271 2.123047,-1.81054 3.040957,-2.8032 5.040219,-4.61178 6.511719,-5.72071 0.73575,-0.55446 1.338264,-0.93394 1.875,-1.17578 0.178912,-0.0806 0.351231,-0.14591 0.517578,-0.19726 0.332695,-0.10272 0.643997,-0.14827 0.955078,-0.15039 0.15554,-0.001 0.311452,0.007 0.46875,0.0273 0.157298,0.02 0.316639,0.0516 0.480469,0.0898 0.32766,0.0766 0.674209,0.187 1.05664,0.32032 0.36822,0.12836 0.752433,0.29593 1.152344,0.5 0.399911,0.20406 0.815517,0.44285 1.242188,0.71679 0.42667,0.27395 0.864002,0.58192 1.3125,0.91992 1.793991,1.35203 3.743488,3.1938 5.689453,5.33789 0.486491,0.53604 0.973371,1.09114 1.457031,1.66211 0.48366,0.57098 0.963556,1.15772 1.439453,1.75782 0.475897,0.6001 0.946953,1.21253 1.410156,1.83593 2.779218,3.74044 5.285508,7.84946 6.986329,11.69532 l 2.419921,5.4707 103.43359,0 103.4336,0 0.57031,-2.75 c 0.20687,-0.99736 0.40747,-2.00821 0.60156,-3.0293 0.19409,-1.02109 0.38193,-2.05336 0.5625,-3.08984 0.36115,-2.07297 0.6934,-4.16744 0.9961,-6.25195 0.30269,-2.08452 0.57414,-4.15814 0.8125,-6.1875 0.71507,-6.08811 1.12799,-11.77869 1.1582,-16.16993 0.005,-0.73187 -9.8e-4,-1.42647 -0.0176,-2.08203 -0.0166,-0.65555 -0.0431,-1.27089 -0.082,-1.84179 -0.0778,-1.14182 -0.20153,-2.1062 -0.37305,-2.85938 -0.17441,-0.76589 -0.38165,-1.54823 -0.62109,-2.3418 -0.23945,-0.79356 -0.50999,-1.59926 -0.8086,-2.4121 -0.59714,-1.62571 -1.3072,-3.28107 -2.10546,-4.9336 -0.39913,-0.82626 -0.82117,-1.65227 -1.26172,-2.472655 -0.44056,-0.820385 -0.90088,-1.635286 -1.37696,-2.441406 -0.95215,-1.61224 -1.9685,-3.186555 -3.02734,-4.691407 -1.58826,-2.257276 -3.26935,-4.356669 -4.96484,-6.183593 -0.56517,-0.608975 -1.13199,-1.18804 -1.69727,-1.732422 -1.69583,-1.633146 -3.3801,-2.956595 -4.9707,-3.857422 -0.2651,-0.150138 -0.52752,-0.287937 -0.78711,-0.414063 -0.2596,-0.126125 -0.51618,-0.240731 -0.76953,-0.341796 -1.74914,-0.697754 -6.02808,-2.550178 -9.50977,-4.117188 -1.29223,-0.581598 -2.48158,-1.10098 -3.58789,-1.5625 -1.1063,-0.461519 -2.12929,-0.865984 -3.08984,-1.214844 -0.96055,-0.348859 -1.85792,-0.643101 -2.71289,-0.886718 -0.85498,-0.243618 -1.66746,-0.436237 -2.45703,-0.582032 -1.97395,-0.364485 -3.80787,-0.435299 -5.8125,-0.269531 -0.40093,0.03315 -0.80739,0.07537 -1.22461,0.126953 -0.83444,0.103164 -1.70697,0.24275 -2.63672,0.414063 -1.14287,0.210581 -2.32545,0.449098 -3.56836,0.720703 -1.24291,0.271605 -2.54532,0.577041 -3.92969,0.921875 -2.76875,0.689668 -5.86218,1.537933 -9.44531,2.59375 -3.58313,1.055817 -7.65589,2.318283 -12.38477,3.837891 -2.36444,0.759803 -4.89441,1.584457 -7.60742,2.478515 -2.71301,0.894059 -5.60989,1.857919 -8.71289,2.898438 l -21.5,7.208984 -16.5,0.0078 c -2.43835,0.0011 -4.58318,-0.0022 -6.49609,-0.03125 -0.95646,-0.01454 -1.85525,-0.03427 -2.70313,-0.06445 -3.3915,-0.12074 -5.97466,-0.389609 -8.23633,-0.976562 -0.56541,-0.146738 -1.11176,-0.312582 -1.64453,-0.501953 -1.06553,-0.378743 -2.07941,-0.848025 -3.10547,-1.429688 -0.51302,-0.290831 -1.02875,-0.609326 -1.55468,-0.958984 -0.52594,-0.349658 -1.06316,-0.730649 -1.61719,-1.144531 -0.55403,-0.413883 -1.12534,-0.862197 -1.72266,-1.345704 -0.59731,-0.483502 -1.22117,-1.00202 -1.87695,-1.560546 -1.31156,-1.117053 -2.75407,-2.390322 -4.39063,-3.839844 -2.81051,-2.489322 -5.35055,-4.7167 -7.67382,-6.720703 -2.32328,-2.004004 -4.42954,-3.784219 -6.37891,-5.375 -4.87342,-3.976954 -8.7571,-6.776125 -12.533203,-8.958985 -1.510441,-0.873143 -3.003901,-1.647119 -4.537109,-2.359375 -3.83302,-1.780639 -7.913989,-3.170741 -13.128906,-4.734375 -1.223884,-0.366967 -2.452407,-0.746359 -3.625,-1.117187 -1.172593,-0.370828 -2.288516,-0.734023 -3.289063,-1.068359 -1.000546,-0.334339 -1.886005,-0.638989 -2.59375,-0.896485 -0.707745,-0.257496 -1.237063,-0.467119 -1.53125,-0.607422 -0.207082,-0.09876 -0.406216,-0.204537 -0.595703,-0.318359 -1.326412,-0.796755 -2.22461,-1.974612 -2.742187,-3.685547 -0.147881,-0.488838 -0.264816,-1.019963 -0.351563,-1.599609 -0.04337,-0.289824 -0.07892,-0.592377 -0.107422,-0.90625 -0.142491,-1.569368 -0.10157,-3.445545 0.107422,-5.683594 0.0668,-0.715356 0.119202,-1.370321 0.154297,-1.990234 0.210569,-3.719482 -0.221112,-6.123749 -2.166016,-12.042969 -0.32415,-0.986537 -0.691322,-2.071204 -1.103515,-3.275391 -0.535417,-1.564174 -1.038699,-2.992314 -1.517579,-4.291016 -0.478878,-1.2987 -0.93284,-2.467293 -1.363281,-3.513671 C 59.245331,10.447851 58.837364,9.5240038 58.447266,8.7167969 58.057167,7.90959 57.685979,7.2179046 57.328125,6.6367188 57.149198,6.3461258 56.973165,6.0842097 56.800781,5.8476562 55.938862,4.6648891 55.153163,4.1464734 54.378906,4.1914062 Z m 55.642574,103.2988238 4.72266,14.5293 15.2793,0 -12.36133,8.98242 4.7207,14.5293 -12.36133,-8.97852 -12.359371,8.97852 4.720701,-14.5293 -12.361326,-8.98242 15.279296,0 4.7207,-14.5293 z m 51.9004,0 4.72265,14.5293 15.27735,0 -12.35938,8.98242 4.7207,14.5293 -12.36132,-8.97852 -12.36133,8.97852 4.7207,-14.5293 -12.35937,-8.98242 15.27929,0 4.72071,-14.5293 z m 52.0996,0 4.72266,14.5293 15.27734,0 -12.35937,8.98242 4.7207,14.5293 -12.36133,-8.97852 -12.35937,8.97852 4.7207,-14.5293 -12.36133,-8.98242 15.2793,0 4.7207,-14.5293 z m 50.67774,0 4.72266,14.5293 15.27929,0 -12.36133,8.98242 4.72071,14.5293 -12.36133,-8.97852 -12.35938,8.97852 4.72071,-14.5293 -12.36133,-8.98242 15.2793,0 4.7207,-14.5293 z" id="rect4483" style="fill:#031bbb;fill-opacity:1;stroke:none;stroke-width:36;stroke-linejoin:miter;stroke-miterlimit:4;stroke-dasharray:none;stroke-opacity:1"/>
    <rect height="3.7846153" id="rect4487" style="fill:#031bbb;fill-opacity:1;stroke:none;stroke-width:36;stroke-linejoin:miter;stroke-miterlimit:4;stroke-dasharray:none;stroke-opacity:1" width="0.18461539" x="137.16924" y="103.75385"/>
    <path d="m 252.14231,306.62593 c -3.17552,-0.62247 -6.89113,-3.00864 -7.94329,-5.10118 -1.38102,-2.74658 -0.46427,-4.26288 7.4814,-12.3742 l 7.20626,-7.35649 0.54097,-6.17094 c 0.64994,-7.41383 0.66127,-7.4682 2.99746,-14.37781 l 1.85377,-5.4828 -0.36576,-16.41264 -0.36575,-16.41263 -5.4161,-11.00135 c -2.97886,-6.05075 -6.27352,-12.00001 -7.32147,-13.22058 -2.24678,-2.61689 -3.96178,-2.90447 -5.28427,-0.88609 -0.80016,1.22119 -0.80633,1.56104 -0.0734,4.04683 0.44005,1.49253 1.76762,5.22455 2.95016,8.29338 2.40659,6.24539 2.6239,8.51584 1.11365,11.6356 -0.93716,1.9359 -7.6856,8.90201 -17.89228,18.46937 l -3.52466,3.30389 0,8.76064 c 0,10.0403 0.0934,9.77993 -5.75833,16.04787 -3.86097,4.13555 -7.1049,8.69688 -10.70099,15.04679 -3.44851,6.08931 -6.39257,10.38007 -7.66919,11.17734 -1.55505,0.97114 -8.77131,1.74797 -12.94564,1.39359 -10.52357,-0.89339 -13.87737,-4.94558 -9.7528,-11.78368 0.95276,-1.57957 5.98577,-8.65131 11.18446,-15.71499 14.1524,-19.22944 16.84433,-23.65794 16.84433,-27.71056 0,-0.8363 0.82242,-3.65006 1.8276,-6.2528 1.10192,-2.85324 1.8276,-5.65115 1.8276,-7.04647 0,-3.07199 -2.22666,-8.82393 -7.86434,-20.31532 -5.75092,-11.72219 -7.03629,-13.56921 -10.00598,-14.37823 -2.77994,-0.75733 -9.26963,-0.34987 -16.63492,1.04445 -7.5788,1.43474 -11.45535,1.91198 -25.76077,3.17139 -6.86804,0.60465 -12.93118,1.33689 -13.47364,1.62721 -2.15886,1.15538 -8.32302,12.64918 -10.83417,20.20157 -2.38836,7.18308 -3.26881,12.28147 -3.30907,19.1616 -0.034,5.80981 0.10154,6.70328 1.86134,12.27102 1.0439,3.30273 2.37479,7.65731 2.95753,9.67684 1.17775,4.08155 2.34804,5.46335 7.61028,8.98583 4.13726,2.76942 5.16384,3.95429 4.7735,5.50954 -0.69975,2.78804 -17.86362,21.77885 -19.68369,21.77885 -0.45771,0 -1.98895,-0.82241 -3.40276,-1.82759 -2.81221,-1.99941 -5.11383,-2.36797 -5.70659,-0.9138 -0.20487,0.50259 -0.55812,2.52588 -0.785,4.49622 -0.23683,2.05671 -0.75878,3.9287 -1.22557,4.39548 -1.03195,1.03195 -12.556405,1.57883 -23.659028,1.12271 -7.137413,-0.29322 -7.719293,-0.39464 -8.615824,-1.50181 -0.528805,-0.65305 -0.961464,-1.83905 -0.961464,-2.63556 0,-2.76705 4.286293,-10.27556 12.968216,-22.71706 1.631753,-2.33837 2.311328,-3.9277 2.679272,-6.26606 0.271142,-1.72316 0.87099,-5.54449 1.332995,-8.49183 0.462005,-2.94735 1.471194,-7.05944 2.242643,-9.138 1.390789,-3.74727 1.401812,-3.88496 1.305171,-16.30267 -0.09689,-12.44914 -0.788701,-23.21422 -1.812642,-28.20587 -0.294562,-1.43597 -2.392683,-9.77765 -4.662491,-18.53708 -5.386893,-20.78857 -6.289632,-24.95447 -5.516429,-25.45682 0.330693,-0.21486 45.765441,-0.45348 100.966091,-0.53027 l 100.36485,-0.13963 0.57354,2.22831 c 1.24516,4.83763 2.2152,7.19889 4.8361,11.77193 5.31979,9.28215 12.77127,18.37407 15.9739,19.49051 4.2582,1.48442 5.54667,14.08038 2.21155,21.61996 -1.46185,3.30476 -2.35962,3.02036 -3.71968,-1.17837 -0.62795,-1.93856 -1.89822,-4.82335 -2.82282,-6.41063 -2.16154,-3.71076 -2.90606,-5.89035 -2.9203,-8.54917 -0.0168,-3.13383 -1.45022,-5.77466 -5.83896,-10.75713 -5.23877,-5.9475 -9.0216,-9.39908 -10.3011,-9.39908 -0.65778,0 -1.37917,0.63016 -1.92111,1.67816 -0.72543,1.40282 -0.81771,2.7094 -0.56245,7.96311 0.3361,6.91755 1.63454,13.64388 5.24521,27.1718 4.2953,16.09296 4.3341,20.32739 0.23707,25.86904 -1.44003,1.94778 -1.91922,6.3877 -2.46144,22.80631 l -0.48659,14.73422 -4.79525,7.98022 c -6.13432,10.20872 -7.94512,12.55978 -10.90105,14.15348 -3.93316,2.12059 -12.54688,3.00141 -18.30783,1.87213 z" id="path4160" style="fill:#ff0000;fill-opacity:1;stroke:none;stroke-width:36;stroke-linejoin:miter;stroke-miterlimit:4;stroke-dasharray:none;stroke-opacity:1"/>
  </g>
  <g id="gold" transform="translate(4,4)">
    <circle cx="138" cy="138" id="circle4458" r="124" style="fill:none;stroke:#fdd400;stroke-width:36;stroke-miterlimit:4;stroke-dasharray:none;stroke-opacity:1"/>
    <line id="line4456" style="stroke:#fdd400;stroke-width:30;stroke-miterlimit:4;stroke-dasharray:none;stroke-opacity:1" x1="45" x2="231" y1="45" y2="231"/>
  </g>
  <g id="g5472" mask="url(#mask5538)" transform="matrix(0.07076923,0,0,0.07076923,-73.9,4.000003)">
    <rect height="3900" id="rect5435" style="fill:#b22234" width="7410" x="0" y="0"/>
    <path d="m 0,450 7410,0 m 0,600 -7410,0 m 0,600 7410,0 m 0,600 -7410,0 m 0,600 7410,0 m 0,600 -7410,0" id="path5437" style="stroke:#ffffff;stroke-width:300"/>
    <rect height="2100" id="rect5439" style="fill:#3c3b6e" width="2964" x="0" y="0"/>
    <g id="g5441" style="fill:#ffffff">
      <g id="s18">
        <g id="s9">
          <g id="s5">
            <g id="s4">
              <path d="m 247,90 70.53423,217.08204 -184.66101,-134.16408 228.25356,0 -184.66101,134.16408 z" id="s"/>
              <use height="100%" id="use5448" width="100%" x="0" xlink:href="#s" y="420"/>
              <use height="100%" id="use5450" width="100%" x="0" xlink:href="#s" y="840"/>
              <use height="100%" id="use5452" width="100%" x="0" xlink:href="#s" y="1260"/>
            </g>
            <use height="100%" id="use5454" width="100%" x="0" xlink:href="#s" y="1680"/>
          </g>
          <use height="100%" id="use5456" width="100%" x="247" xlink:href="#s4" y="210"/>
        </g>
        <use height="100%" id="use5458" width="100%" x="494" xlink:href="#s9" y="0"/>
      </g>
      <use height="100%" id="use5460" width="100%" x="988" xlink:href="#s18" y="0"/>
      <use height="100%" id="use5462" width="100%" x="1976" xlink:href="#s9" y="0"/>
      <use height="100%" id="use5464" width="100%" x="2470" xlink:href="#s5" y="0"/>
    </g>
  </g>
</svg>