<?xml version="1.0" ?><svg height="284" id="svg4444" version="1.1" width="284" xmlns="http://www.w3.org/2000/svg" xmlns:cc="http://creativecommons.org/ns#" xmlns:dc="http://purl.org/dc/elements/1.1/" xmlns:rdf="http://www.w3.org/1999/02/22-rdf-syntax-ns#" xmlns:svg="http://www.w3.org/2000/svg">
  <metadata id="metadata4454">
    <rdf:RDF>
      <cc:Work rdf:about="">
        <dc:format>image/svg+xml</dc:format>
        <dc:type rdf:resource="http://purl.org/dc/dcmitype/StillImage"/>
        <dc:title/>
        <cc:license rdf:resource="http://creativecommons.org/publicdomain/zero/1.0/"/>
      </cc:Work>
      <cc:License rdf:about="http://creativecommons.org/publicdomain/zero/1.0/">
        <cc:permits rdf:resource="http://creativecommons.org/ns#Reproduction"/>
        <cc:permits rdf:resource="http://creativecommons.org/ns#Distribution"/>
        <cc:permits rdf:resource="http://creativecommons.org/ns#DerivativeWorks"/>
      </cc:License>
    </rdf:RDF>
  </metadata>
  <defs id="defs4452">
    <mask id="mask5538" maskUnits="userSpaceOnUse">
      <g id="g5540" style="stroke:#fdffff;stroke-opacity:1" transform="matrix(14.130435,0,0,14.130435,1100.7609,-4.2391305e-5)">
        <circle cx="138" cy="138" id="circle5542" r="124" style="fill:none;stroke:#fdffff;stroke-width:28;stroke-opacity:1"/>
        <line id="line5544" style="stroke:#fdffff;stroke-width:22;stroke-opacity:1" x1="45" x2="231" y1="45" y2="231"/>
      </g>
    </mask>
  </defs><path d="M 134.40039 62.90625 C 96.392267 63.144794 63.448268 71.695222 63.451172 113.58398 C 63.451915 124.43001 63.822825 125.30406 70.158203 125.28516 C 76.425027 125.26576 200.11618 125.1356 200.20703 125.13672 C 205.04809 125.19692 206.34131 124.01985 206.31836 115.74609 C 206.19842 72.446 178.74433 62.627941 134.40039 62.90625 z M 94 78.357422 L 97.564453 81.921875 L 90.4375 89.050781 L 94 92.615234 L 101.12891 85.486328 L 111.82227 96.179688 L 108.25781 99.742188 L 101.12891 92.615234 L 97.564453 96.179688 L 104.69336 103.30664 L 94 114 L 90.435547 110.43555 L 97.564453 103.30664 L 94 99.744141 L 86.873047 106.87109 L 76.179688 96.179688 L 79.744141 92.615234 L 86.873047 99.744141 L 90.435547 96.179688 L 83.308594 89.050781 L 94 78.357422 z M 135.57422 78.357422 L 139.13672 81.921875 L 132.00977 89.050781 L 135.57422 92.615234 L 142.70117 85.486328 L 153.39453 96.179688 L 149.83008 99.742188 L 142.70117 92.615234 L 139.13672 96.179688 L 146.26562 103.30664 L 135.57422 114 L 132.00977 110.43555 L 139.13672 103.30664 L 135.57422 99.744141 L 128.44531 106.87109 L 117.75195 96.179688 L 121.31641 92.615234 L 128.44531 99.744141 L 132.00977 96.179688 L 124.88086 89.050781 L 135.57422 78.357422 z M 176.68359 78.357422 L 180.24805 81.921875 L 173.12109 89.050781 L 176.68359 92.615234 L 183.8125 85.486328 L 194.50586 96.179688 L 190.94141 99.742188 L 183.8125 92.615234 L 180.24805 96.179688 L 187.37695 103.30664 L 176.68359 114 L 173.11914 110.43555 L 180.24805 103.30664 L 176.68359 99.744141 L 169.55664 106.87109 L 158.86328 96.179688 L 162.42773 92.615234 L 169.55664 99.744141 L 173.11914 96.179688 L 165.99219 89.050781 L 176.68359 78.357422 z " id="back" style="fill:#1404bd;fill-opacity:1;fill-rule:evenodd;stroke:none"/><path d="m 69.115106,129.60738 c -3.918747,-0.0225 -5.291384,1.04337 -5.291384,4.39706 0,6.93737 -0.524948,60.51789 -0.223579,69.23515 0.118495,3.42755 2.012435,4.43826 4.546118,4.4716 5.664507,0.0745 19.750181,0.26003 24.966389,0.14905 3.577275,-0.0745 5.117336,-1.78464 5.291384,-6.93097 0.163174,-4.82481 -0.07658,-12.81977 0.07453,-19.97311 0.05095,-2.4121 0.89432,-4.17349 3.353698,-4.24801 6.23336,-0.1889 30.19285,-0.19206 34.95294,-0.0745 6.03665,0.14905 7.00549,0.0745 7.15455,6.33475 0.17713,7.43936 0.14905,11.99878 -0.0745,17.73732 -0.23887,6.13101 1.78864,6.70739 5.0678,6.78191 4.84298,0.11007 16.02333,-0.15719 21.6127,-0.0745 7.43151,0.10661 7.29301,-2.15796 7.37813,-11.84972 0.0384,-4.17398 0.006,-18.713 -0.14906,-25.33902 -0.0385,-1.6459 0.81995,-2.81342 1.93769,-2.83201 4.55658,-0.0745 5.50526,11.85155 6.63287,17.81184 4.18021,22.09574 13.84307,24.914 22.65606,24.96639 11.04751,0.0692 21.57418,-9.08992 21.6127,-27.94745 0.006,-2.83934 -0.59621,-5.29138 -2.68296,-5.29139 -9.31825,0 -3.87671,0.1366 -8.79413,0 -2.60843,-0.0745 -4.91875,0.29811 -4.39706,4.32254 0.52168,4.02444 0.75101,11.52572 -4.32255,11.70067 -2.16126,0.0745 -3.87537,-1.49053 -3.87537,-5.8876 0,-4.39706 -0.30968,-49.19015 -0.44716,-52.76478 -0.0745,-1.9377 -0.14906,-4.84423 -4.02444,-4.7697 -4.84325,0.0969 -125.098509,0.11712 -132.955334,0.0745 z" id="trunk" style="fill:#ff0000;fill-opacity:1;fill-rule:evenodd;stroke:none"/>
  <g id="g5941" style="stroke:#cc1009;stroke-opacity:1" transform="translate(4,4)">
    <circle cx="138" cy="138" id="circle5931" r="124" style="fill:none;stroke:#cc1009;stroke-width:28;stroke-opacity:1"/>
    <line id="line5933" style="stroke:#cc1009;stroke-width:22;stroke-opacity:1" x1="45" x2="231" y1="45" y2="231"/>
  </g>
</svg>