<?xml version="1.0" encoding="UTF-8" standalone="no"?>
<svg
   xmlns:dc="http://purl.org/dc/elements/1.1/"
   xmlns:cc="http://creativecommons.org/ns#"
   xmlns:rdf="http://www.w3.org/1999/02/22-rdf-syntax-ns#"
   xmlns:svg="http://www.w3.org/2000/svg"
   xmlns="http://www.w3.org/2000/svg"
   version="1.1"
   id="svg4444"
   height="284"
   width="284">
  <metadata
     id="metadata4454">
    <rdf:RDF>
      <cc:Work
         rdf:about="">
        <dc:format>image/svg+xml</dc:format>
        <dc:type
           rdf:resource="http://purl.org/dc/dcmitype/StillImage" />
        <dc:title />
        <cc:license
           rdf:resource="http://creativecommons.org/publicdomain/zero/1.0/" />
      </cc:Work>
      <cc:License
         rdf:about="http://creativecommons.org/publicdomain/zero/1.0/">
        <cc:permits
           rdf:resource="http://creativecommons.org/ns#Reproduction" />
        <cc:permits
           rdf:resource="http://creativecommons.org/ns#Distribution" />
        <cc:permits
           rdf:resource="http://creativecommons.org/ns#DerivativeWorks" />
      </cc:License>
    </rdf:RDF>
  </metadata>
  <defs
     id="defs4452">
    <mask
       id="mask5538"
       maskUnits="userSpaceOnUse">
      <g
         transform="matrix(14.130435,0,0,14.130435,1100.7609,-4.2391305e-5)"
         style="stroke:#fdffff;stroke-opacity:1"
         id="g5540">
        <circle
           style="fill:none;stroke:#fdffff;stroke-width:28;stroke-opacity:1"
           cx="138"
           cy="138"
           r="124"
           id="circle5542" />
        <line
           style="stroke:#fdffff;stroke-width:22;stroke-opacity:1"
           x1="45"
           y1="45"
           x2="231"
           y2="231"
           id="line5544" />
      </g>
    </mask>
    <mask
       id="mask4259"
       maskUnits="userSpaceOnUse">
      <path
         id="path4261"
         d="m -192.159,-20.281496 c -82.66247,0 -150,67.337532 -150,149.999996 0,82.66247 67.33753,150 150,150 82.66247,0 150,-67.33753 150,-150 0,-82.662464 -67.33753,-149.999996 -150,-149.999996 z m 0,30.434783 c 66.21429,0 119.565217,53.350927 119.565217,119.565213 0,28.78522 -10.0865,55.13567 -26.925521,75.73243 L -267.89142,37.078813 c 20.59675,-16.83903 46.9472,-26.925526 75.73242,-26.925526 z m -92.63969,43.832796 168.37211,168.372117 c -20.59676,16.83902 -46.9472,26.92552 -75.73242,26.92552 -66.21429,0 -119.56522,-53.35092 -119.56522,-119.56522 0,-28.78521 10.0865,-55.135661 26.92553,-75.732417 z"
         style="color:#000000;font-style:normal;font-variant:normal;font-weight:normal;font-stretch:normal;font-size:medium;line-height:normal;font-family:sans-serif;text-indent:0;text-align:start;text-decoration:none;text-decoration-line:none;text-decoration-style:solid;text-decoration-color:#000000;letter-spacing:normal;word-spacing:normal;text-transform:none;direction:ltr;block-progression:tb;writing-mode:lr-tb;baseline-shift:baseline;text-anchor:start;white-space:normal;clip-rule:nonzero;display:inline;overflow:visible;visibility:visible;opacity:1;isolation:auto;mix-blend-mode:normal;color-interpolation:sRGB;color-interpolation-filters:linearRGB;solid-color:#000000;solid-opacity:1;fill:#ffffff;fill-opacity:1;fill-rule:nonzero;stroke:none;stroke-width:28;stroke-linecap:butt;stroke-linejoin:miter;stroke-miterlimit:4;stroke-dasharray:none;stroke-dashoffset:0;stroke-opacity:1;color-rendering:auto;image-rendering:auto;shape-rendering:auto;text-rendering:auto;enable-background:accumulate" />
    </mask>
  </defs>
  <g
     transform="translate(4,4)"
     style="stroke:#000000;stroke-opacity:1"
     id="gold">
    <circle
       id="circle4458"
       r="124"
       cy="138"
       cx="138"
       style="fill:none;stroke:#000000;stroke-width:36;stroke-miterlimit:4;stroke-dasharray:none;stroke-opacity:1" />
    <line
       id="line4456"
       y2="231"
       x2="231"
       y1="45"
       x1="45"
       style="stroke:#000000;stroke-width:30;stroke-miterlimit:4;stroke-dasharray:none;stroke-opacity:1" />
  </g>
  <g
     mask="url(#mask4259)"
     transform="matrix(0.92,0,0,0.92,318.78628,22.658976)"
     id="g4210">
    <path
       id="rect4194"
       d="m -417.159,-20.281496 450.000003,0 0,299.999996 -450.000003,0 z"
       style="stroke:none;stroke-opacity:1" />
    <path
       id="polygon4196"
       d="M 450,0 0,0 0,300 Z"
       style="fill:#cc1009;fill-opacity:1;stroke:none;stroke-opacity:1"
       transform="translate(-417.15898,-20.281496)" />
  </g>
</svg>
